<svg xmlns="http://www.w3.org/2000/svg" viewBox="0 0 40 36"><defs><style>.cls-1{fill:#4285f4;}.cls-2{fill:#34a853;}.cls-3{fill:none;}.cls-4{fill:#fbbc05;}.cls-5{fill:#ea4335;}</style></defs><g id="Layer_2" data-name="Layer 2"><g id="Layer_1-2" data-name="Layer 1"><path class="cls-1" d="M26.05,14.12A8.32,8.32,0,0,0,20,11.7a8.27,8.27,0,0,0-8.47,8.47,8.32,8.32,0,0,0,2.42,6.08,8.2,8.2,0,0,0,6,2.45,8.37,8.37,0,0,0,8.53-8.53A8.2,8.2,0,0,0,26.05,14.12Z"/><path class="cls-2" d="M33.89,7.35a3,3,0,0,1,3,3V11L40,13.88V7.35a2.86,2.86,0,0,0-.92-2.07A2.87,2.87,0,0,0,37,4.35H29.68l3.25,3Z"/><path class="cls-3" d="M33.89,7.35h-28a3,3,0,0,0-3,3V30a3,3,0,0,0,3,3h28a3,3,0,0,0,3-3V10.35A3,3,0,0,0,33.89,7.35Z"/><path class="cls-4" d="M5.89,33a3,3,0,0,1-3-3V24.93L0,22.14V33a2.88,2.88,0,0,0,.9,2.1A2.88,2.88,0,0,0,3,36H14.34l-3.1-3Z"/><path class="cls-5" d="M36.89,11V30a3,3,0,0,1-3,3H11.24l3.1,3H37a2.92,2.92,0,0,0,2.08-.9A2.86,2.86,0,0,0,40,33V13.88Z"/><path class="cls-1" d="M2.89,10.35a3,3,0,0,1,3-3h27l-3.25-3h0L26,0H14L10.35,4.35H3a2.83,2.83,0,0,0-2.1.93A2.88,2.88,0,0,0,0,7.35V22.14l2.89,2.79Z"/></g></g></svg>