<svg xmlns="http://www.w3.org/2000/svg" viewBox="0 0 28 38"><defs><style>.cls-1{fill:#4285f4;}.cls-2{fill:#fbbc05;}.cls-3{fill:#34a853;}.cls-4{fill:#ea4335;}</style></defs><g id="Layer_2" data-name="Layer 2"><g id="Layer_1-2" data-name="Layer 1"><path class="cls-1" d="M17.58,1.46A4.93,4.93,0,0,0,14,0a4.91,4.91,0,0,0-3.58,1.46A4.79,4.79,0,0,0,9,5V17.55A5.27,5.27,0,0,0,10.4,21.3,4.75,4.75,0,0,0,14,22.85a4.75,4.75,0,0,0,3.6-1.55,5.27,5.27,0,0,0,1.45-3.75V5A4.79,4.79,0,0,0,17.58,1.46Z"/><path class="cls-2" d="M6.21,25.2A10.22,10.22,0,0,1,3,17.55H0a13.12,13.12,0,0,0,3.6,9.2,12.89,12.89,0,0,0,1,1l1.89-2.28Z"/><path class="cls-3" d="M12.5,31.25V38h3V31.21A6.92,6.92,0,0,1,12.5,31.25Z"/><path d="M15.5,31.2h0l.1,0Z"/><path class="cls-4" d="M25,17.55a10.23,10.23,0,0,1-3.22,7.65A10.84,10.84,0,0,1,14,28.3a10.78,10.78,0,0,1-7.51-2.86L4.59,27.72a13.48,13.48,0,0,0,7.2,3.38l.71.15a6.92,6.92,0,0,0,3,0h.1a13.65,13.65,0,0,0,8.8-4.44,13.12,13.12,0,0,0,3.6-9.2Z"/></g></g></svg>