<svg xmlns="http://www.w3.org/2000/svg" viewBox="0 0 204.56 188.11"><defs><style>.cls-1{fill:#f5b2b3;}.cls-2{fill:#eb7f7f;}.cls-3{fill:#e24640;}.cls-4{fill:#ea7775;}.cls-5{fill:#ed8382;}.cls-6{fill:#e24039;}.cls-7{fill:#ef817f;}.cls-8{fill:#d72327;}.cls-9{fill:#dd3229;}.cls-10{fill:#ec8987;}.cls-11{fill:#ee8381;}.cls-12{fill:#f48079;}.cls-13{fill:#f7b9b8;}.cls-14{fill:#f6a2a0;}.cls-15{fill:#f69d9a;}.cls-16{fill:#f6acad;}.cls-17{fill:#f6b7ba;}.cls-18{fill:#f37773;}.cls-19{fill:#f6acaa;}.cls-20{fill:#f4807c;}.cls-21{fill:#f6a7a6;}.cls-22{fill:#f48581;}.cls-23{fill:#f48380;}.cls-24{fill:#f9c6c4;}.cls-25{fill:#f58984;}.cls-26{fill:#f6b9ba;}.cls-27{fill:#f5b2b6;}.cls-28{fill:#f59595;}.cls-29{fill:#f6a6a4;}.cls-30{fill:#f6adae;}.cls-31{fill:#f8bfbf;}.cls-32{fill:#f5a9a9;}.cls-33{fill:#dd4c49;}.cls-34{fill:#f6a4a3;}.cls-35{fill:#bf2126;}.cls-36{fill:#f5928f;}.cls-37{fill:#f8bfbd;}.cls-38{fill:#f5a9a8;}.cls-39{fill:#f7b4b2;}.cls-40{fill:#f38d8b;}.cls-41{fill:#dc413b;}.cls-42{fill:#e33a2f;}.cls-43{fill:#f7c0be;}.cls-44{fill:#f6b2b0;}.cls-45{fill:#d93029;}.cls-46{fill:#eb5d55;}.cls-47{fill:#f5b1b1;}.cls-48{fill:#f6b4b1;}.cls-49{fill:#e35554;}.cls-50{fill:#d62227;}.cls-51{fill:#e44036;}.cls-52{fill:#f5b0ac;}.cls-53{fill:#f5aeab;}.cls-54{fill:#f8c5c6;}.cls-55{fill:#f6adac;}.cls-56{fill:#f3918f;}.cls-57{fill:#f6b5b5;}.cls-58{fill:#f6afae;}.cls-59{fill:#f59291;}.cls-60{fill:#f5a3a2;}.cls-61{fill:#f69a9a;}.cls-62{fill:#d12729;}.cls-63{fill:#f5b2b2;}.cls-64{fill:#f5a4a4;}.cls-65{fill:#f58e8a;}.cls-66{fill:#f48786;}.cls-67{fill:#f59c9b;}.cls-68{fill:#f6aaad;}.cls-69{fill:#f3948a;}.cls-70{fill:#f48684;}.cls-71{fill:#f7a09f;}.cls-72{fill:#f1716d;}.cls-73{fill:#f7a19f;}.cls-74{fill:#d72427;}.cls-75{fill:#f37271;}.cls-76{fill:#f6a6a6;}.cls-77{fill:#ce2227;}.cls-78{fill:#f6a9a9;}.cls-79{fill:#f26f6a;}.cls-80{fill:#f5b2b0;}.cls-81{fill:#f26f6c;}.cls-82{fill:#e23b2f;}.cls-83{fill:#f48784;}.cls-84{fill:#f7b4b3;}.cls-85{fill:#f5a7a3;}.cls-86{fill:#f6b0b1;}.cls-87{fill:#f48080;}.cls-88{fill:#f6a1a0;}.cls-89{fill:#f69e9d;}.cls-90{fill:#d22428;}.cls-91{fill:#f17876;}.cls-92{fill:#f6b4b3;}.cls-93{fill:#f6a4a2;}.cls-94{fill:#da2827;}.cls-95{fill:#e74943;}.cls-96{fill:#f5908b;}.cls-97{fill:#f5918d;}.cls-98{fill:#f6948f;}.cls-99{fill:#f29494;}.cls-100{fill:#e87574;}.cls-101{fill:#f6aaa8;}.cls-102{fill:#f6abab;}.cls-103{fill:#f8c1c3;}.cls-104{fill:#f6b7b6;}.cls-105{fill:#f59b9a;}.cls-106{fill:#f6b1b1;}.cls-107{fill:#f49c9a;}.cls-108{fill:#f2706c;}.cls-109{fill:#711d17;}.cls-110{fill:#d45b46;}.cls-111{fill:#a95b41;}.cls-112{fill:#b74326;}.cls-113{fill:#efcbc9;}.cls-114{fill:#e8453e;}.cls-115{fill:#f6a7a7;}.cls-116{fill:#ef6b67;}.cls-117{fill:#9a1d1f;}.cls-118{fill:#f48585;}.cls-119{fill:#f48280;}.cls-120{fill:#f58d8d;}.cls-121{fill:#f4a7a6;}.cls-122{fill:#6d1a13;}.cls-123{fill:#973728;}.cls-124{fill:#b67c6a;}.cls-125{fill:#e9514a;}.cls-126{fill:#c02226;}.cls-127{fill:#f69697;}.cls-128{fill:#e23d34;}.cls-129{fill:#ed615a;}.cls-130{fill:#f4a0a1;}.cls-131{fill:#f6a1a3;}.cls-132{fill:#f5a3a4;}.cls-133{fill:#f59192;}.cls-134{fill:#eb5f5c;}.cls-135{fill:#f69693;}.cls-136{fill:#e6483f;}.cls-137{fill:#dc554b;}.cls-138{fill:#e34035;}.cls-139{fill:#f07770;}.cls-140{fill:#f8bbbb;}.cls-141{fill:#f7b5b4;}.cls-142{fill:#f8c0bf;}.cls-143{fill:#f5b0af;}.cls-144{fill:#f69998;}.cls-145{fill:#f38481;}.cls-146{fill:#f6a8a8;}.cls-147{fill:#e22e28;}.cls-148{fill:#f18584;}.cls-149{fill:#db2227;}.cls-150{fill:#f4837f;}.cls-151{fill:#f58c86;}.cls-152{fill:#f5908d;}.cls-153{fill:#e95551;}.cls-154{fill:#f7b4b5;}.cls-155{fill:#f37d7a;}.cls-156{fill:#f69e9c;}.cls-157{fill:#f37d76;}.cls-158{fill:#f18381;}.cls-159{fill:#f37671;}.cls-160{fill:#f58b89;}.cls-161{fill:#f37e7b;}.cls-162{fill:#f69b9b;}.cls-163{fill:#f6a9a8;}.cls-164{fill:#f58a88;}.cls-165{fill:#f5918f;}.cls-166{fill:#f6a4a1;}.cls-167{fill:#7d6f36;}.cls-168{fill:#2e0f0d;}.cls-169{fill:#e0cfbb;}.cls-170{fill:#e2d6d0;}.cls-171{fill:#c59c79;}.cls-172{fill:#cfbeaa;}.cls-173{fill:#ab4425;}.cls-174{fill:#b93a35;}.cls-175{fill:#842920;}.cls-176{fill:#91361e;}.cls-177{fill:#e9857e;}.cls-178{fill:#f69b99;}.cls-179{fill:#ec5d57;}.cls-180{fill:#d25c2e;}.cls-181{fill:#c56e5b;}.cls-182{fill:#f48683;}.cls-183{fill:#a4572f;}.cls-184{fill:#e1d1c8;}.cls-185{fill:#a55a31;}.cls-186{fill:#e1c6bd;}.cls-187{fill:#7d6f38;}.cls-188{fill:#943821;}.cls-189{fill:#f3726c;}.cls-190{fill:#952e1f;}.cls-191{fill:#b62825;}.cls-192{fill:#f37f7f;}.cls-193{fill:#ec6d66;}.cls-194{fill:#f48985;}.cls-195{fill:#581512;}.cls-196{fill:#e23f39;}.cls-197{fill:#721912;}.cls-198{fill:#ed514a;}.cls-199{fill:#dc2d2b;}.cls-200{fill:#f6aeaf;}.cls-201{fill:#bd682b;}.cls-202{fill:#ee8484;}.cls-203{fill:#f69b9a;}.cls-204{fill:#f69691;}.cls-205{fill:#ed7270;}.cls-206{fill:#f5928e;}.cls-207{fill:#f4b2af;}.cls-208{fill:#f69e9b;}.cls-209{fill:#f48986;}.cls-210{fill:#f37d78;}.cls-211{fill:#f26863;}.cls-212{fill:#f37b75;}.cls-213{fill:#f6a3a1;}.cls-214{fill:#812a20;}.cls-215{fill:#de7069;}.cls-216{fill:#f5b6b2;}.cls-217{fill:#d8532a;}.cls-218{fill:#a89858;}.cls-219{fill:#847a3e;}.cls-220{fill:#958c54;}.cls-221{fill:#8e5d25;}.cls-222{fill:#ded5ca;}.cls-223{fill:#957938;}.cls-224{fill:#e4d8cd;}.cls-225{fill:#a32322;}.cls-226{fill:#8e8042;}.cls-227{fill:#751d14;}.cls-228{fill:#decabf;}.cls-229{fill:#ddc4bf;}.cls-230{fill:#e1c6c1;}.cls-231{fill:#351313;}.cls-232{fill:#7b211c;}.cls-233{fill:#673013;}.cls-234{fill:#735221;}.cls-235{fill:#5b4c22;}.cls-236{fill:#d5baa4;}.cls-237{fill:#5e512a;}.cls-238{fill:#403518;}.cls-239{fill:#c1a38e;}.cls-240{fill:#685a2b;}.cls-241{fill:#5c3113;}.cls-242{fill:#caa895;}.cls-243{fill:#d27a62;}.cls-244{fill:#691310;}.cls-245{fill:#ca977f;}.cls-246{fill:#87251a;}.cls-247{fill:#68110f;}.cls-248{fill:#c84528;}.cls-249{fill:#c34428;}.cls-250{fill:#d06962;}.cls-251{fill:#ba8062;}.cls-252{fill:#d1b3a3;}.cls-253{fill:#512711;}.cls-254{fill:#f5938f;}.cls-255{fill:#f8bcbb;}.cls-256{fill:#f26b67;}.cls-257{fill:#7a6f38;}.cls-258{fill:#6e2913;}.cls-259{fill:#9f4a24;}.cls-260{fill:#b57c61;}.cls-261{fill:#361212;}.cls-262{fill:#9d5a4a;}.cls-263{fill:#973720;}.cls-264{fill:#ceb7ab;}</style></defs><g id="Layer_2" data-name="Layer 2"><g id="Layer_1-2" data-name="Layer 1"><path class="cls-1" d="M118.14,186.06c-.85,1.14-2,.86-3.17.75-.79-.4-1.78-.12-2.48-.78-1.87-1.32-.25-3.39-1.07-4.93-3.66-6.54-4.31-14.14-7.36-20.89-.66-1.49-.92-3.16-2-5.32,1.42,10.13,5.63,18.48,9.46,27-2.56,5.35-7.09,5.57-10.81,1.23-2.58-3-6.57-4.48-10.49-5.55a2.77,2.77,0,0,1-1.78-1.07c-3.94-3.83-3.11-9.76-6.19-14-.94-1.29,0-2.5,1.16-3.3s2.2-.32,3.06.59c1,1.09,1.66,2.45,2.64,3.56a10.41,10.41,0,0,1,1.51,2.87c.41-4-1.83-7.53-1-11.31a37.7,37.7,0,0,0,.91-11.8c-.17-2.28-.78-5.85,3.81-4.61,1.76,2.34,4.13,4.47,4.6,7.43.49,3.12,2.51,3.52,4.87,3.65,2.93.16,1.91-2.49,2.58-3.92a15.42,15.42,0,0,0,.77-2.84c.72-2.47-.68-4.5-1.37-6.68-.84-2.66-2.16-5.26-1.21-8.2a6.94,6.94,0,0,1,3.37-2.7c2.38-1.1,4.58-1.32,5.26,1.91A3.31,3.31,0,0,0,116,130a6,6,0,0,1,2.71,2.45c.8,1.7,2.81,2.69,2.85,4.83-1.22,2.19-2.36,4.56-5.54,3.84-2-.45-1.75,1.1-1.92,2.09a51.68,51.68,0,0,1-3.81,12.8c-.28.56.88.82.28.51-.17-.08-.12-.21,0-.46,1.51-2.29,5.12-2.57,5.55-6.08.11-1,2-.9,3.11-.31,1.94,1,3,2.59,2.46,4.91-.82,1.69.11,3.16.56,4.71.54,1.87,1.37,3.83-.86,5.27-1.79.78-3.11-.31-5-1.55,1.22,3.8-.24,6.34-3,8.53,2.92,2.28,7.15,3.47,6.19,8.37,1.87-2.71,5.72-2.14,8.21-4.31a4,4,0,0,1,1.93-.56c2.18,1.33,3.68-2.21,5.88-.83a3.52,3.52,0,0,1,.31,2.73,7.48,7.48,0,0,1-4.4,3.51C126.85,182,121.42,181.47,118.14,186.06Z"/><path class="cls-2" d="M141,2.06h4a3.15,3.15,0,0,1,4,0h2.87a3.07,3.07,0,0,1,1.26-.78,7.82,7.82,0,0,1,3-.17c6.11,2.95,12.25,5.86,16.66,11.32a4.32,4.32,0,0,1,.53,2.81c-.87,1.38-1,3.2-2.58,4.17-1.16-.16-1.53-1-1.88-2C165.19,8.37,154.37,3.14,143.21,5a11.69,11.69,0,0,1-1.43.29c-2.39.26-4.83.06-7.15.89C122,10,112.38,17.52,106.34,29.37a10,10,0,0,1-.72,1.28c-1.22,1.63-2.5,2.58-4.05.34.2-5.38,3.68-9.17,6.93-12.76C114,12.2,120,6.71,128,4.11c.66-.25,1.33-.47,2-.69,1.11-.36,2.21-.73,3.33-1.06,1.61-.38,3.25-.59,4.87-.95A4.79,4.79,0,0,1,141,2.06Z"/><path class="cls-3" d="M89,176l.94,1a14.79,14.79,0,0,1,7.57,6.3c0,1,0,2.06-1.56,1.76-5.24-1.66-9.57-4.89-13.92-8.08-2.23-2.42-3.94-5.33-6.78-7.18A21.68,21.68,0,0,1,72,161a1.54,1.54,0,0,1,1.18-.4c1.4.59,3,.61,4.35,1.21,2,1.86,2.29,4.81,4.16,6.78C83.4,171.77,86.4,173.7,89,176Z"/><path class="cls-4" d="M131.1,179.83l4-2.89a20.58,20.58,0,0,1,3-4.46c4.85-4.84,6.56-10.87,6.42-17.55-.88-5.69-2-11.33-4.33-16.63-.45-1.67-1.81-3.45.6-4.76,3.61.42,4,3.59,5.17,6.06.42,2.16,1.42,4.23,1.07,6.52.65,5.63,2,11.26,0,16.89a34.21,34.21,0,0,1-16,18.72c-.72-.33-1.36-.77-1-1.69C130.18,179.53,130.67,179.63,131.1,179.83Z"/><path class="cls-5" d="M48.92,4.08l2.15-1c7.51-1.8,15-3.6,22.83-2.94,1.51.12,3.32-.2,3.26,2.23a3.66,3.66,0,0,1-1.35.84c-4,.7-8,.2-12.05.38a23.59,23.59,0,0,0-10,2.21A26.37,26.37,0,0,0,44,11a41.13,41.13,0,0,0-5.14,4.36c-2.21,2-.76,5.48-3,7.44a3.2,3.2,0,0,1-3.4.63,2.08,2.08,0,0,1-.7-1.23A26.69,26.69,0,0,1,35.25,13a23.49,23.49,0,0,1,5.07-4.36c.85-.64,1.64-1.35,2.5-2,1-.65,2.07-1.36,3.1-2A5.37,5.37,0,0,1,48.92,4.08Z"/><path class="cls-6" d="M29.11,134.82,23,132.08a1.15,1.15,0,0,1,.23-1.48c1.45-1,3.12-.9,4.76-.93a17.19,17.19,0,0,1,5.42,1.3c5.12,1.95,10.09-.61,15.15-.49A8.32,8.32,0,0,1,52.43,133a2.45,2.45,0,0,1,0,1.56c-1.47,2.14-3.79,1.57-5.84,1.82-1.35.06-2.61.6-3.93.76a21.8,21.8,0,0,1-6.6-.18C33.89,135.87,31,137.09,29.11,134.82Z"/><path class="cls-7" d="M23.22,131.08l-.21,1C19,132,16.45,128.86,13.29,127c-1.28-.1-1.46-1.33-2.12-2.06a2.7,2.7,0,0,0-2.05-1.84,3.08,3.08,0,0,1-2.58-.73,16.43,16.43,0,0,1-3.6-5.13c-.87-2.4-3.09-4.41-2.11-7.33a10.39,10.39,0,0,1,3.65-2.36,25.77,25.77,0,0,1,6.72.59c1.51.75,3.83.38,4.09,2.89a4.06,4.06,0,0,1-2.79,1.19,31.29,31.29,0,0,1-4.33,0c-.43,0-.87,0-1.29,0-2,1.8,0,2.84.81,4,3.26,4.85,7.86,8.35,12.43,11.85C21.27,129,22.83,129.42,23.22,131.08Z"/><path class="cls-8" d="M73.08,160.91,72,161c-2.24-2.62-2.54-5.82-2.75-9.06.9-1.43-.39-4.73,3.26-3.84,1.77,2.41,3.61,4.88,3.53,8C76,158.07,76,160.51,73.08,160.91Z"/><path class="cls-9" d="M72,147.94c-2,.59-1.56,2.85-2.77,4-.11-1-.21-2-.32-3,.15-2.69.63-5.42-.74-8,.85-.95-.25-2.54,1.08-3.34,1.93-.52,2.23.8,2.41,2.26-.21-2.14-.5-4.24,2.74-3.84,2.14,3.58-.24,6.65-1.08,9.9A3.43,3.43,0,0,1,72,147.94Z"/><path class="cls-10" d="M96,185c1-.39,1.08-1.16.94-2.05.15-.07.37-.24.44-.19,4.76,3.44,10.47,2,15.69,3,.76.11,1.55.15,1.92,1C108.4,188.69,102,188.87,96,185Z"/><path class="cls-11" d="M131.1,179.83c-1.14.58-.3,1.25-.09,1.9-4.34,1.3-9.11,1.31-12.87,4.33-1.29-1.89,0-2.85,1.49-3.12C123.56,182.26,126.71,178.73,131.1,179.83Z"/><path class="cls-12" d="M75.28,169.76c1.61-1.22,2.45-.46,3.32,1.05,1.17,2,3.12,3.62,3.46,6.13C79.14,175.17,75.64,174,75.28,169.76Z"/><path class="cls-13" d="M121,155a4.44,4.44,0,0,0-.79-3.27c-.78-.87-1.59-1.85-2.89-1.55-1.53.36-1.23,1.74-1.28,2.85s0,1.94,0,3.41c-2.58-1.2-5.28-3-5.18,2.33-1.1-2.18-2-3.54-1.08-5.3,2.07-4,2.64-8.43,3.27-12.82.31-2.18.41-3.65,3.09-1.25s3-2,4.89-2.46c.32-2.22-1.17-3.87-1.83-5.78-.75-2.13-.27-3.45,2.14-3.72,3.61,1.72,5,4.73,4.08,8.42-.69,2.64.5,2.62,2.36,2.82,2.9.3,5.81-1.54,8.68.1,1.66,3.63,1.93,7.06-1.42,10-1.08.43-2.36.2-3.36.71-1.72.89-4.26,1.81-1.08,4,1.31.92.74,2.48,1.39,3.56,1.89,3.14.8,7.94,5.65,9.54,1.08.36,1.31,2.55.93,4.1a6.25,6.25,0,0,1-3.6,3.19c-1.37,1.36-2.2,4-4.95,2-.75-1.18-1.26-2.71-.38-3.71,4.67-5.34-.6-4.06-3-4.69C123.21,164,122.4,159.39,121,155Z"/><path class="cls-14" d="M121,128c-2.08.89-1.29,1.93-.43,3.36,1,1.68,2.55,3.58.43,5.61-1-1.33-3.21-1.77-3-4a15.2,15.2,0,0,0-2-5.12c.13,1.25.69,2.2.06,3.15-1.5-.18-3.89.62-3.85-1.76.09-5.95-2.86-3.27-5.35-2.12-.59.27-1.13.64-1.7,1a3.82,3.82,0,0,1-1.47-3.93c2-2.13,2.89-6.85,7.43-3.1,1,.84,1.84-.17,2.47-.94a7.05,7.05,0,0,1,4.48-2.92c2.54.68,5.09-2.59,7.73-.05.1.09.23-1.67,1-2.26a2.06,2.06,0,0,1,2-.18c1.15,2.2,2.5,4.11,5,5.11,1.85.75,3.63,2.21,3.92,4.2.43,3,2.54,4,4.66,5.23.8.83,2.18,1.39,1.42,3-1,.94-2.23.8-3.44.77a11.32,11.32,0,0,1-7.28-4.56c-.5,1.33.1,2.75-.89,3.78-3.48-.1-7-.14-9.19-3.56C122.64,128,122,127.35,121,128Z"/><path class="cls-15" d="M132,132a11.85,11.85,0,0,0-.31-2.4c-.37-1.13-.91-2.41.57-2.88,1.13-.35,1.83.34,2.33,1.73.86,2.35,3.68,2.37,5.51,3.61.5.52,1.34.85,1,1.82-2.2,1.31.26,2.74-.11,4.1.23,6.07,1.31,11.9,4.91,17,0,9.14-3.36,16.59-10.9,22l-.09-3c.08-1.94,1.77-2.26,3-3-.07-4.1-1.22-8.49,3.21-11.37.55-.36.37-1.55-.26-1.66-3.12-.56-3.46-4.22-6.22-5.28-2.46-1-2.61-2.75-.7-4.62,3.6-2.35,1.8-5.88,2-9C134.83,136.55,132.62,134.71,132,132Z"/><path class="cls-16" d="M94.06,139c-3.57-.2-2.62,2.38-2.38,4.18.56,4.1.73,8.09-1.49,11.81-2-1.37-2.45-3.55-2.49-5.69-.09-6-.5-11.92.24-17.85.57-1.8,2-3.24,3.66-2.43,3.56,1.78,5.19,0,6.75-2.69a3.15,3.15,0,0,1,2.78-1.8c3.85,4,3.82,9.39,5.29,14.25-3.88,1.19-3.88,1.19-6.12-2.79-.3,1.56-.44,3-1.71,3.69-1.94,1-2.2-.52-2.57-1.82C95.28,138.07,95.27,139.55,94.06,139Z"/><path class="cls-13" d="M128,175.92c-.31.74-.71,2.15-.91,2.12-4-.55-6.48,3.38-10.73,3.49.51-1.84,4.11-2.63,1.73-5-1.41-1.4-2.66-3-4.88-3.07-3,0-2.69-1.63-1.09-2.87,2.44-1.89,5.25-3.18,2.65-7-.33-.48,1.08-2.15,1.8-3.49,1.89,1.18,1.46,4.69,4.5,3.84,3.1,2,4,5.52,5.57,8.51A8.1,8.1,0,0,0,128,175.92Z"/><path class="cls-17" d="M94.06,139c1.27-.64.7-2.09,1.36-3.08,1.61.54,1.22,2.46,2.16,3.4,1.78-.73,1.35-2.18,1.48-3.42.11-1.09-.25-2.63,1.42-2.64s.78,1.52.84,2.27c.26,3.19,2.61,3.16,4.84,3.41,2.45.53,1.55,2.59,1.88,4.1a17.67,17.67,0,0,1-.69,3.37c-.7,1.67.67,4.2-1.2,5-2.16,1-4.35-2.14-6.91-.77-.13.07-1-.67-.95-.91C99.23,145.21,94.74,142.84,94.06,139Z"/><path class="cls-18" d="M89.11,130c.17,8.33-.91,16.72,1.08,25,.76,4.67,2.55,9.22,1.66,14.27-2.89-.72-2-4-3.73-5.31-1.46-3.76-3.73-7.26-3.47-11.53-.05-7.84-.59-15.68.32-23.51.5-1.47,1.14-2.82,2.88-3.15C89.89,126.67,90.25,128.11,89.11,130Z"/><path class="cls-19" d="M86,153q1.08,5.47,2.17,11c-2.16-.58-1.46-5.64-4.38-3.78-3.48,2.21,2.12,2.91,1.82,5.36-.46,3.85,2.56,6.89,3.47,10.5-4.27-.5-6.39-3.45-8-7-1-4-4.52-7.2-3.31-12.06C79.05,151.57,80.54,150.59,86,153Z"/><path class="cls-20" d="M111.08,181.86c-5.57-8.91-10-18.17-9.44-29.09,5.25,9.08,7.63,19.18,10.43,29.14A.59.59,0,0,1,111.08,181.86Z"/><path class="cls-21" d="M111.08,181.86c.32,0,.65,0,1,0,.85,1.17-.31,2.84,1,3.9-5.57.16-11.24.86-16.13-2.84-2.24-2.09-5.26-3.28-7-6,2.06-.76,4.64-3.5,5.2,1.4a2.14,2.14,0,0,0,.73,1.16c4.7-1.58,5.32,1.82,7.41,4.78C104.7,186.26,109.27,185.45,111.08,181.86Z"/><path class="cls-22" d="M126.05,172.85a44.88,44.88,0,0,1-5-8.91c2.06-2.54-.57-4.44-.93-6.64-.16-1-1.4-2.23.84-2.29,3.13,3.41,3.48,8.2,5.95,11.93S129.36,171.43,126.05,172.85Z"/><path class="cls-23" d="M108,143c-1.6-.92-.31-3.17-1.88-4.1q-2.55-7-5.09-13.93c-1-2.11-2.31-4.4,2-3.71.88.72,1.52,1.54,1.1,2.78.33,1.33.67,2.66,1,4a32.11,32.11,0,0,0,2.26,9.07C108,138.89,110.18,140.83,108,143Z"/><path class="cls-24" d="M126.05,172.85c3.6-1.46.31-4,.91-5.91,2-.49,4.12-1.25,5.93.55,1,1,1.81,2.72.07,3.08-3.45.72-2.08,3.53-2.94,5.33l-2,0C125.53,176.08,124.7,175.17,126.05,172.85Z"/><path class="cls-25" d="M116.06,131c-.49-1.77-2.6-3.12-1.45-5.3.1-.19.91-.22,1.27,0,2.09,1,2.13,3.11,2.42,5a8.84,8.84,0,0,1-.26,2.32Z"/><path class="cls-26" d="M134,5.26c2.5-1.62,5.28-.88,8-.91a3.05,3.05,0,0,1-1.13,3.89c-4.51,3.41-4.49,5.26.16,8.28a7.45,7.45,0,0,1,2.38,1.71c.68,2.46-.9,3.62-2.65,4.7-3.8.83-6.34,3.35-8.51,6.38-2.53.58-4.07-.86-5.42-2.67a2.64,2.64,0,0,1-.21-1.36c.83-2.11,2.84-3.4,3.83-5.4.1-.54,1-.72.63-1.46-.23.2-.46.41-.7.64-1.47,1.27-2.36,3.15-4.26,3.93-2.69.29-3.68,2.37-4.67,4.44-2,1.71-5,1.32-7,3.4-1,1-2.55.76-3.42-.64-1.07-1.73-2-3.65-.82-5.59,3.57-5.65,7.55-10.88,14.33-13.06C128.26,10.34,130.94,7.48,134,5.26Z"/><path class="cls-27" d="M105,30.08c0-.3.06-.61.11-.92,4.56-.63,4.65-.5,5,7.69,2.92-.69,6-1.21,6,3.28-.53,3.49-1.48,6.77-4.32,9.16-2.73,2.18-1.92,6.33-5.63,8.33,2.78,1.33,4.56.51,6.33-.18,2.6-1,3.48,0,2.77,2.49s-1.41,4.69-1.92,7.12c-.87,4.22-4.21,2.53-6.85,2.37-4.29-.44-6-3-5.91-7.09.06-2.64.3-5.31-.73-7.85-1.47-8.09-.36-15.68,4.43-22.55C104.68,31.4,104.6,30.64,105,30.08Z"/><path class="cls-28" d="M169.92,17.15c.09.83.25,1.62,1.18,1.94,3.09-.91,2.92,1.82,3.79,3.39,1.3,6.8.27,13.4-1.72,19.92-.71,1.75-1.21,3.61-2.54,5.05a4.49,4.49,0,0,1-2.8,1.38c-7.54.1-13.32-3.86-18.88-8.3-.64-2.37.73-3.68,2.52-4.75,2.24.34,4.17-1.35,6.41-1,2.13,1.85,3.49-.48,5.19-1,1.72-.14,2.94,1.52,5,1.31-.28-1.83-1.87-3.09-1.93-4.86-.4-2.39,2.14-4.57.46-7a7.82,7.82,0,0,1,.7-4.07C167.93,18.12,168.36,16.87,169.92,17.15Z"/><path class="cls-29" d="M105,30.08c-1.4,5.3-2.41,10.75-4.34,15.85-1.17,3.08.68,5.5.36,8.24-1.07,1.17-2.62,1.29-4,1.82a12.45,12.45,0,0,1-3.77.8c-4.14-2.56-4.32-4.41-.87-9,2.52.77,4,.51,2.79-2.68-1.31-3.59-1.69-7.45-3-11.06-.66-1.85-1.54-3.74-.63-5.78,3.13-2.13,3.45-4.66,1.75-8C90.7,15,87.56,10.36,82.25,7.36c-2-1.13-4.69-1.94-5.09-4.9l0-.3,1-.06A2.38,2.38,0,0,1,80,1.6c3.54,1.1,6.2,3.58,9.1,5.69a12.46,12.46,0,0,1,2.12,2.35c.45.65.83,1.36,1.25,2A2.66,2.66,0,0,1,93,13.33l1.22,1.73c1.95,1.21,2.57,3.14,2.8,5.27,0,.88.11,1.74,1.18,2,3.76,1.85,3,5.67,3.87,8.8C103.55,32.28,104.13,30.8,105,30.08Z"/><path class="cls-30" d="M115.07,40.2c-.19-2.8-1-4.26-3.87-2-1.9,1.51-2.15,1.43-2.23-1,0-1.44-.94-2.7-.38-4.32,1.07-3.1-1-3.68-3.49-3.7A44.12,44.12,0,0,1,134,5.26c-2.2,4-5.8,5.87-9.88,7.77-3.55,1.66-7.89,3.17-9.68,7.48-.37.91-.52,2.26-1.2,2.63-3.15,1.69-3.33,4.23-1.31,6.41,2.29,2.46,3-1.08,4.32-1.93,1.55-1,3.29.73,4.76-.47a1.93,1.93,0,0,1-.43,3c-2,1.54-1.55,3.72-1.81,5.74a10.83,10.83,0,0,1-2.39,4.34A1.21,1.21,0,0,1,115.07,40.2Z"/><path class="cls-31" d="M143.06,18.19c-5.8-1.19-7.3-3.37-6.69-8.68.2-1.75.61-2.68,2.2-2.19,3,.91,2.38-1.88,3.41-3l1-.2c1.41-1,2.82,0,4.21.09,6.07.27,6.07.34,3.61,6C148.69,13.38,147.84,17.71,143.06,18.19Z"/><path class="cls-32" d="M149.94,10.22c-2.22-2.34,1.88-2.53,1.41-4.51L143,4.15c9.62-3.31,25.26,4.23,26.95,13L168,19.2c-4.83-.75-7.17-4.19-8.95-8.24-1.31-.76-2.83-1-4.17-1.65C153,8.44,151.64,10.2,149.94,10.22Z"/><path class="cls-33" d="M173.91,22.18c-1.41-.6-.45-3.36-2.81-3.09.11-1.49-1.08-3.58,1.74-3.85,1.09,2.28,3.17,4.12,3,6.94A1.32,1.32,0,0,1,173.91,22.18Z"/><path class="cls-34" d="M86,153c-7.12,0-9.9,4.72-6.19,10.94A8.41,8.41,0,0,1,81,169c-2.86-1.51-2.42-4.92-4.11-7.1-2.25-4.51-1.68-9.4-2-14.18.56-5.35,2-10.57,2.52-15.93a4.27,4.27,0,0,1,.86-2.12,11.18,11.18,0,0,1,4-3.37c1.66-.34,3.07-.1,3.78,1.69Q86,140.49,86,153Z"/><path class="cls-35" d="M76.21,147a65.21,65.21,0,0,0,.71,14.9c-1.71,1.31-3,.89-3.84-1,2.33-3.09,2.68-6.22.08-9.32A5.38,5.38,0,0,1,72,147.94l.06-2C73.85,144.78,75.24,145.06,76.21,147Z"/><path class="cls-36" d="M146,155c-4.45-3.25-7-11.93-4.91-17C144.51,143.08,144.53,149.22,146,155Z"/><path class="cls-37" d="M43.12,10.24c3-2.28,5.81-5,10-5.06,3.81-1.33,7.79-1,11.67-.91,3.49.11,5.17,2,3.33,5.61-3.6,1.75-.71,2.62.53,3.7,1.31,5-3.45,5-5.86,6.65s-4,.31-4.4-2.52c0,0-.91.07-1.41,0a2.42,2.42,0,0,1-1.54-1.29c-.13-.3-.21-.63-.32-.94-.36-1,0-2.44-1.53-2.83a.79.79,0,0,0-.86.37c-.93,1.52.69,1.93,1.27,2.78a7.17,7.17,0,0,1,.93,1.75,6,6,0,0,1-.05,3C54,23,52.87,25.3,49.73,25c-2.63-.24-3.56-2.14-3.73-4.5-.1-1.43-.94-1.77-2.18-2.19-5.25-1.77-5.38-2.39-1.89-6.5C42.36,11.32,42.74,10.78,43.12,10.24Z"/><path class="cls-13" d="M67.08,10.2c1.83-3.73.71-5.09-3.43-4.8-3.51.25-7-.12-10.58-.22C56,2.65,59.54,2.51,63.1,2.3c3.47,1.21,7.3-.57,10.69,1.29a1.81,1.81,0,0,1,.75,1.25c-1.82,4.33-2.35,8.47,1.2,12.37,1.28,1.41,1.37,3.1-1.1,3.7a4.78,4.78,0,0,1-3.35-1.51c0,1.11.68,1.77.85,2.54.53,1.61.26,3.24-1.48,3.49-3,.43-5.72,2.38-8.91,2-3.06-2.73-6-5.51-4.71-10.24l4.07-1.93c.6,1.63-.94,2-1.36,2.9-.59,1.26.26,2.37,1.06,1.75,2.45-1.86,6.71-1.54,7.26-5.74C67.06,13,66.27,11.8,67.08,10.2Z"/><path class="cls-38" d="M74.18,4.22c-3.5-1.76-7.6-.08-11.08-1.92l14.06.16c7.7,4.73,15,9.77,18,19,1,3.21,2.27,6.4-3,6.7a4,4,0,0,1-2.84-2C85.6,18,81,10.33,74.18,4.22Z"/><path class="cls-39" d="M43.12,10.24a10.15,10.15,0,0,1-1.23,2.59c-3,3.32-1.13,4,2.13,4.4,1.15.12,3.31-1.15,3.26,1.48,0,2.11-.83,4.45,2.07,5.29,3.33,1,3.28-2.45,4.81-3.84,1.91,0,1.78,1.48,2,2.72-1,4-5.7,4.87-7.22,8.46-1.54.38-2.65-.74-4-1.13a6.06,6.06,0,0,1-1.19-.67c-1.87-1.46-1-3.75-1.68-5.57-.18-3.4-4.52-2.42-5.38-5.09a10,10,0,0,1,1.51-4.67Z"/><path class="cls-40" d="M43.13,24.14c1.76,1.38-.92,3.65,1,5,.32,3.52.86,7.07-1.43,10.22-3.18-1.57-6.4-3-6.37-7.45,0-1.46-1.74-1.76-2.61-2.68a4,4,0,0,1-.6-1.37c-.63-2.31.74-4,1.91-5.65,2.28-2.18-.1-6.2,3.17-8l-1.08,4.95a8.09,8.09,0,0,1,.8,1.23C39.73,24.18,39.72,24.18,43.13,24.14Z"/><path class="cls-41" d="M35,22.2,34,28.2c-1.43,1-2.32.14-3.14-.94-.91-1.71.63-2.75,1.11-4.08l.34-.09Z"/><path class="cls-42" d="M52.14,134.08c0-.34,0-.67,0-1,.82-1.94,4.12-1.07,4.25-3.76-.4-.94-1.29-1.58-1.57-2.58.17-1.3,1.15-1.84,2.16-2.38a6.87,6.87,0,0,1,1.34-.39c5.81.24,6.82,1.51,5.39,6.76a3.09,3.09,0,0,1-.93,1l-.67.2c-2.91-.2-5.28,1.63-8,2.19A1.47,1.47,0,0,1,52.14,134.08Z"/><path class="cls-43" d="M12.16,111.09,15,111c2.77-1.82,6.08-.43,9-1.5a5.58,5.58,0,0,1,3.32,1.33c.48,2.19.67,4.47,3.77,1.82s6.45-.24,9.27,1c2.26,1,.89,3.48.35,5.34a3.49,3.49,0,0,1-3.29,1.48,6.3,6.3,0,0,0,2.75-.41c4.82-2.24,9,1.29,13.21,2.22,3,.66.26,3.86-1.46,5.53-6,2.66-12.17,4.61-18.87,4.07l-4.95-1.05a28,28,0,0,1-10.77-4.64c-1.73-1.32-3-2.73-.72-4.68,4.24.06,8.48,0,11.5,0-3.14-.52-7.63.47-12-.37-5.9,0-10.82-5-10-10.22l1,.16C8.82,112.06,10.49,113.18,12.16,111.09Z"/><path class="cls-44" d="M6.15,110.93c1,5.15,5.23,9,10,9.09a1.31,1.31,0,0,1,0,1.93c-.36,2.28,1.15,3.14,2.86,4,3.07,1.54,6.07,3.22,9.1,4.85l-4.88.27c-7.29-3.46-12.73-9.08-17.61-15.3C3.68,113.31,3.91,112.46,6.15,110.93Z"/><path class="cls-45" d="M33.05,131.86l19.06-5a2.05,2.05,0,0,1,2.16,0,2.39,2.39,0,0,1,.2,2.19c-1.45,1.5-3,2.67-5.32,2C43.83,132.2,38.57,134.6,33.05,131.86Z"/><path class="cls-46" d="M49.15,131,54,128.94a2.37,2.37,0,0,1,3.1,0c2,.37,2.35,1.56.66,2.49s-3.76,1.13-5.67,1.65C50.76,132.94,49.14,133.17,49.15,131Z"/><path class="cls-13" d="M11.05,109.06c-2.36,0-4.77.21-7-.92-1,0-1.48-.64-1.81-1.46a10.67,10.67,0,0,1,0-5.85c1.85-5.17,3.5-6,11.56-5.73,2.85,1.2,2.15,3.37,1.52,5.53a3.15,3.15,0,0,0-.07,2.78c.82,1.42,2.94,2.53,1.43,4.6S13.13,109.7,11.05,109.06Z"/><path class="cls-47" d="M11.05,109.06c5.57-.44,5.57-.44,2.7-5-.69-1.1-.79-2.11.34-3l.7-.2c4.18-1.83,8.23.32,12.35.37,5.18,1.87,5.23,2,2.48,7A9.37,9.37,0,0,1,24,110c-2.79,2.46-6,.95-9,.93C14.17,109.34,11.9,110.69,11.05,109.06Z"/><path class="cls-48" d="M12.16,111.09c-.12,1.08.2,2.56-1.34,2.72-1.9.19-2.79-1.35-3.67-2.72Z"/><path class="cls-49" d="M3,107.09l1,1c0,2.07-1.41,1.86-2.76,1.82-.08-1-.15-1.95-.23-2.92A1.27,1.27,0,0,1,3,107.09Z"/><path class="cls-50" d="M76.21,147A6.93,6.93,0,0,0,72.08,146c.21-3.42,3.06-6.32,2-10a10.61,10.61,0,0,1-2.68-7,2.4,2.4,0,0,1,1.52-1.61c2.78-.26,4,1.72,5.31,3.64,1.05,2.31,1.56,4.48-.31,6.78C75.72,140.49,78.49,144.24,76.21,147Z"/><path class="cls-51" d="M72,128.86c.15,2.52,2.46,4.42,2,7.1-2.29,1-2,3.17-2.07,5.35-1.35-1.11-.61-3.4-2.74-3.34.56-2,1.11-4,1.67-5.95C70.25,130.61,70,129.34,72,128.86Z"/><path class="cls-52" d="M134,148l-.29,2.89c3.89-.2,4.11,4.65,7.49,5.37,2,.44,4.32,2.24,1.56,4-3.84,2.46-4.88,5.39-3.95,9.52.07.3-.54.75-.84,1.14-.57-1.81-.38-4-2.58-5-2.5-1.07-7.1-1-3-5.73.22-.26-2.09-3.77-2.75-6-.2-.67-3.14,1.24-2.37-1.44.51-1.78,1-4,3.24-4.61A15.15,15.15,0,0,1,134,148Z"/><path class="cls-53" d="M132,132c2.17,1.86,5.1,3.3,4,7-3.55.67-7.1,1.33-10.73,1-1.38-.14-3.79-.3-2.06-2.43,3.55-4.38.16-6.74-2.18-9.52a8.91,8.91,0,0,1,.69-.6C124.62,130.13,129.08,129.35,132,132Z"/><path class="cls-54" d="M144,132.05c-.67-.68-1.35-1.36-2-2.05-.52-1.35-2.1-1.59-2.85-2.69a4.86,4.86,0,0,1-.08-5.2c.94-1.92,2.53-1.86,4.26-1.43a25.23,25.23,0,0,0,5,1.18,32.84,32.84,0,0,1-5.42-2c-2.67-1.67-5.86-2.45-8.2-4.7a3.43,3.43,0,0,1-.46-1.46c1.89-4.82,2.9-5.18,7.33-2.62,1.85,2.13,4.56,3.12,6.61,5.1s4.42.74,6.35-.66a5.8,5.8,0,0,1,6.08-.67c1.6.66,3,1.57,3.07,3.49s-1.33,2.49-2.79,3-3.17,1.23-2.72,3.44a16.46,16.46,0,0,1,.77,2c.55,2.69-.07,5-2.39,6.62-4.37,1.35-8.32-1.28-12.54-1.34Z"/><path class="cls-55" d="M135,114c0,.33,0,.66,0,1a1,1,0,0,1,0,1.28c-1.43.88-2.75.42-4-.32s-2.1-2.5-3.87-1c-.27,1.5,1,4.6-2.73,2.32-2.12-1.31-4,2-6.29.7-.65-.28-1.37-1.15-1.07-1.43,2-1.88.74-3.93.47-5.93,2.51-5,2.64-5,9.06-2.85,1.16-4.31-.82-10.89,7-10.71a9.69,9.69,0,0,1,6.77,1.54c2.36,2.47,3.64,5.26,2.47,8.72-1.3,2-3.31.83-5,1C133.49,108.87,132.86,110.09,135,114Z"/><path class="cls-56" d="M118,111c1.48,1.87,1.49,2.55.05,7a7.28,7.28,0,0,0-3.4,2.67c-1.49,2.47-3,4.54-5.3.43-.74-1.36-1.93-.9-2.34.67a3,3,0,0,1-2.86,2.28L103.05,122c-.58-1.63-2-2.07-3.47-2.37a1.78,1.78,0,0,1-.86-1,3.57,3.57,0,0,1,1.25-3c1.82-1,4.09-1.25,5-3.48,1.07-2.59,3.6.28,4.95-1.33,1.32-.55,2.32,1.06,3.62.49.54-.57.93-1.3,1.69-1.62A2.85,2.85,0,0,1,118,111Z"/><path class="cls-57" d="M131,115a7.05,7.05,0,0,0,4,1c3.07,0,5.23,2.5,8.13,3,2.36.74,4.74,1.44,7.08,2.24.77.27,1.58.8,1.33,1.8s-1.25.86-2,.66a35.66,35.66,0,0,0-4.77-1.25c-1.53-.16-3.25-2.51-4.66.12a4,4,0,0,0,.81,5.37A7.55,7.55,0,0,1,142,130c-2.47-1.06-5.1-1.53-5.25-5.38-.1-2.4-2.72-3.8-5.16-4.62s-4.29-2-2.53-5A1.28,1.28,0,0,1,131,115Z"/><path class="cls-58" d="M126.67,121.56c-2.39.62-3.22-.51-4.11-2.06C124.64,118.66,125.49,120,126.67,121.56Z"/><path class="cls-59" d="M131,115l-1.92,0-2,0C128.37,112,129.67,114.35,131,115Z"/><path class="cls-60" d="M99.17,119.14c2.89-1.25,4.08-.16,3.88,2.83-3.83-1.08-1.32,2-2,3-1.4.56-1.49,2.11-2.27,3-1.86,2.17-3.54,6.66-7.31,1.74-.25-.33-1.56.14-2.38.24A6.58,6.58,0,0,0,88,126.11c-2.18-2.21-.71-2.65,1.34-2.71A11.29,11.29,0,0,0,97.3,120,2.49,2.49,0,0,1,99.17,119.14Z"/><path class="cls-61" d="M98.06,120c-1.55,4-5.21,4.63-8.65,4.45-2.12-.11-1.76.38-1.38,1.65-.63.63-1.26,1.26-1.88,1.9a7,7,0,0,0-4.07-1c.76-3.91,1.21-8.08,7-7.16,1,.17,1.83-.64,2.61-1.27C94.4,116.38,96.51,117,98.06,120Z"/><path class="cls-62" d="M177.13,25.16a88,88,0,0,1,.65,15.89,1.46,1.46,0,0,1-1.18.46c-2.69-2.41-2.25,2.14-4,1.8l-.63-.2a68.93,68.93,0,0,0,1.95-20.93h2Z"/><path class="cls-63" d="M160,9.19c.92,4.75,4.68,7.21,8,10-.31,1.35-.62,2.7-.94,4.06a1.75,1.75,0,0,1-1,1.77,14.24,14.24,0,0,0-6,4.25c-1.17,1.47-3,3.76-5,.56-.31-1-.85-1.86-2.11-1.85a5.58,5.58,0,0,0-4.65,1.15c-.93.79-2.23,1.33-3.23.78-3.91-2.17-7.54-1.35-11.24.51-.85.42-2,.31-1.84-1.27.85-4.45,4-6.28,8.06-7,.81.45,1.85.17,2.59.82.92.62,2,2,3,.86,2.74-3.42,5.68-2.36,8.44-.39a2.24,2.24,0,0,0-.11-3.17c-2.31-3-1.7-4.94,2-5.47C159.52,14.33,158.38,10.85,160,9.19Z"/><path class="cls-64" d="M118,36c-2.53-4.16,1.76-6,3-8.88,0-3.38,1.22-5.5,5.06-4.93a3.29,3.29,0,0,1,1,3c0,.31,0,.62,0,.93,1.66,3.05,5.53,4.23,6.62,7.77a9.84,9.84,0,0,1,.79,3.3c-.68,2.39-3.27,2-4.72,3.2a6.17,6.17,0,0,1-1.24.46c-3.4.93-6.81,1.68-10.32.59C116.68,39.7,119,37.83,118,36Z"/><path class="cls-55" d="M133.08,34.17c-1.62-3-5.52-4.22-6.06-8l5,3c1.94,1.95,2.85-.79,4.09-1.22,2.94-1,5.38-2,8,.57,1,1,2.92,1.14,3.48-.2,1.62-3.84,4.1-1.27,6.25-1.17,1.63,2.88-.18,4.38-2.31,5.74-4.26-1.09-8.69,1.48-12.93-.52C135.79,30,135.4,35.05,133.08,34.17Z"/><path class="cls-65" d="M142,23.1c-.79,0-1.53-.06-1.89-.91,1.53-.94,2.87-2,3-4,3.14-1.93,4.67-5.25,6.88-8,1.33-1.53,2.41-3.63,5-2.08A36.64,36.64,0,0,1,142,23.1Z"/><path class="cls-66" d="M127.06,25.23c-1.17-.73-1-1.89-1-3,1.36-1.31,2-3.34,3.93-4.06a2.14,2.14,0,0,1,1,2C130.83,22.74,128.8,23.87,127.06,25.23Z"/><path class="cls-67" d="M131,20.17a2.06,2.06,0,0,1-1-2c.64-1.21,2-2.69,2.87-1.62C134.07,18,132.47,19.33,131,20.17Z"/><path class="cls-68" d="M129,40.17c.69-2.63,3.67-1.38,5-2.93a3.53,3.53,0,0,1,2.23-2.79c3.75-.69,5.83.52,5.28,4.68-.27,2.07,1.58,3.65,1.3,5.72-.22,1.78-1.57,2.71-2.8,3.76s-2.8,2.26-2.49,4.36c1.22,3.7-.15,5.91-3.81,7a25.6,25.6,0,0,0-7.52,3.42c-1.39,1-3.61,1.73-2.75,4.25,3.43-1.07,4.09-5.23,7.33-6.46,2.37-.46,4.66-1.42,7.13-1.27,3,.19,4.31,1.37,2.19,4.25a91.55,91.55,0,0,1-12.31,10.62c-4.69,1.69-9.23,4.06-14.49,3-2.3-2-8.25.37-7-5.86A8.26,8.26,0,0,1,108,68.13c2.64,1.11,4.63,1.91,4.35-2.63-.15-2.39,1.5-4.9,2.5-7.83-1.38.69-2.4,1.51-3.52,1.71-2.15.38-4.86,1.68-6.38-.32-1.68-2.23,1.83-2.43,2.54-3.92.79-1.65,1.66-3.19,1.6-5.1,0-1.71,1.08-1.17,2-.93,3-1.82,3.73-5.29,5.67-7.89a.94.94,0,0,1,1.2-.13l11.1-.94c.61,1.86-.84,3-1.52,4.4-3.35,4.56-7,8.93-9.49,14.07-.53,1.08-1.38,2-1.87,3.18,1.07-.54,1.42-1.65,2.2-2.33,3.39-4.78,6.51-9.73,9.59-14.7C128.39,43.25,130.39,42.11,129,40.17Z"/><path class="cls-69" d="M108,68.13c0,1.37.44,2.84-.78,4-1.37-.5-2.94-2.66-3.84.49a9,9,0,0,1-.83,2.63,3,3,0,0,1-2.36,1.37c-3.52-1-.72-5.26-3.37-6.75.51-1.79,1.76-1.47,3.15-1-1.12-3.63-2.81-7.1-1-11,.37-.82-1.7.48-2.14-.72a1.63,1.63,0,0,1,.27-2c1.06-1.44,2.59-.89,4-.95,1.55,2.35,1.25,5,1,7.57C101.54,66.37,103.31,68.5,108,68.13Z"/><path class="cls-70" d="M117,41.15a2.62,2.62,0,0,1,.39.88c.07,1.45-4.64,6.68-6.34,7.08a22.23,22.23,0,0,0,4-8.91c.31,0,.63-.06,1-.07C116.93,39.9,117.33,40.18,117,41.15Z"/><path class="cls-71" d="M149,40.12c3.38,2.05,7.44,2.86,10.36,5.78,2.45,2.44,6.16.23,8.76,2.25,1.2,1.42.57,2.78-.13,4.14-1.4,2.19-2.47,4.61-4.44,6.4-1.94,1.62-1.71,5-4.66,5.78A1.74,1.74,0,0,1,157.6,64c-1.22-4.55.72-8.94,1-13.45-2.35-.4-3.92,1.26-5.87,1.47a4.65,4.65,0,0,1-3.06-.48c-3.17-2.77-3.3-6.3-2.54-10.06C147.46,40.64,147.89,39.92,149,40.12Z"/><path class="cls-72" d="M149,40.12l-1,1c-1.46,4.45-4.55,7.77-7.8,10.92-1.08,1-2.34,2.51-4.15,1-.49-4.52,4.24-5,6-7.77a40.16,40.16,0,0,1,2.42-4.47c1.36-1.9,2.65-3.84,3.89-5.83a12.27,12.27,0,0,1,2.68-2.75,5.78,5.78,0,0,0,2.78-5c2-1,2-1,2.12,2-1.05,2.49-1,5.6-4,7Z"/><path class="cls-73" d="M152,36.1c1.16-2.42,1.91-5.09,4-7,1.79,2.74,3.35-.08,3.56-.74,1.07-3.41,3.9-3.54,6.55-4.14-.2,5.51-3.83,8.46-8.16,10.9C155.9,35.28,154.48,39,152,36.1Z"/><path class="cls-74" d="M159,64.09c2.51-1.26.68-5.36,4-6.1s2.82-3.9,4-6a5.8,5.8,0,0,0,1.15-3.84l1.85-1.07.58.43A6.67,6.67,0,0,1,171.66,53c-1.54,3.39-1.72,7.51-5.27,9.85a7.37,7.37,0,0,1-3.81,2.27A3.75,3.75,0,0,1,159,64.09Z"/><path class="cls-75" d="M157.91,35.12c2.73-3.63,6.57-6.42,8.16-10.91.34-.31.67-.63,1-.95,2,.11,2.05,1.23,1.47,2.73s-1,2.75-1.56,4.13c-1.3,1.34-2.53,2.75-3.91,4a30.51,30.51,0,0,1-2.2,2.6C158.3,39.18,158.07,37.19,157.91,35.12Z"/><path class="cls-76" d="M163.07,34.13c.19-2.42,1-4.21,3.91-4l3.26,5.42C167.21,38.31,165.22,35.83,163.07,34.13Z"/><path class="cls-77" d="M169.94,47.08c1.32-1,.42-3.12,2-4l0,0c.92,2.11,2,4.32-2,4Z"/><path class="cls-78" d="M48.27,31.12c.54-4.16,4.56-5.34,6.86-8,3.87,1.12,4.12,5.28,6.46,7.68a16.56,16.56,0,0,1,1.62,2.81c-.39-1.73-1.48-2.63-1.84-3.88a2.45,2.45,0,0,1,.8-2.6C64.63,26,67,24.39,69.85,24.57c2.52.16,1.59-1.27,1.27-2.47,2.49-1.18,2.72.93,3.25,2.34a20,20,0,0,0,4.16,7.12C77.6,29.39,76.07,27.45,76,25c-.14-4.29,4-5.8,5.78-8.81,2.83-.78,3.13,1.74,4.13,3.25,1.77,2.67,2.1,5.84,2.84,8.86a2.86,2.86,0,0,1-.47,2c-1.9.55-3.32.59-1.55,3.5,2.06,3.37,2.88,7.5,6.29,10.06.75,1.38,1.38,2.77.16,4.21-1.2,2.84-4.81,5.94.9,8-.37,2.66-3.47,3.27-4.23,5.64a2.27,2.27,0,0,1-1.2.68c-1.87-.28-2.79-1.64-3.58-3.14-1.77-3.09-3-6.69-7.12-7.57-3.06-1.22.57-3.65-1-5.15a92.81,92.81,0,0,1-6.55-12.31c.87,4.61,4.88,7.7,4.94,12.39a3.64,3.64,0,0,1-.82,2.29c-3.33,2.76-2.72,4.42,1.32,5.33a2.14,2.14,0,0,1,1.79,1.54c.45,3.44,3.12,3.77,5.71,4.3,1.3.83,2.42,1.74,1.47,3.51-3.9,4.48-4,4.62-8.21.75-2.09-1.93-4.65-1.23-6.87-2.13C62.48,53.75,55,45.41,49.48,35.6,48.73,34.26,47.29,33,48.27,31.12Z"/><path class="cls-79" d="M87.94,30.14,88,28.23c-.51-1-1-2.16.14-3,.93-.7,1.16.81,1.92.88l2.09,2c1.39,5.51,2.65,11.07,4.25,16.52.79,2.71,1,5-1.16,7.11-2-.68-.56-3-2.1-3.68a7,7,0,0,0-1.21-4c-1.23-3-2.73-5.81-3.69-8.88C87.74,33.55,86.83,31.91,87.94,30.14Z"/><path class="cls-80" d="M89.11,62c.1-3.26,2.45-4.66,5-5.92.72-1.16,1.89-1,3-1,0,.64,0,1.29,0,1.93,1.62,2.79.42,4.92-1.89,6.34S90.72,64.37,89.11,62Z"/><path class="cls-81" d="M117,41.15l-1-1a6.15,6.15,0,0,1,2-4.1c.69.08,2.24-1.13,1.6,1-.43,1.4-1.09,2.73-1.65,4.09C117.65,41.12,117.35,41.14,117,41.15Z"/><path class="cls-37" d="M142,23.1q6.5-7.47,13-15a8,8,0,0,0,5,1c.77,4.08.24,7.09-5,7.09-2.21,0-1.82,1.33-.59,2.55.56.56,1.32,1.13,1.5,1.83.36,1.3,1.91,2.76.31,4-1.35,1.06-2.9.3-4.1-.6-1.56-1.17-2.91-3.14-4.56-.12C144.91,28.78,143.36,26.37,142,23.1Z"/><path class="cls-56" d="M98.06,120c-2.32-1.05-4.81-3.53-6.53.78-.16.38-.93.92-1.12.82-5.89-3-5.79,3.26-8.33,5.39-.94,1-1.88,2-2.81,3a2.53,2.53,0,0,1-1-2.68,48.79,48.79,0,0,1,2.9-8.29,11.2,11.2,0,0,1,2.47-3.4c1.85-1.59,4.33-.64,6.35-1.58a31.34,31.34,0,0,1,8.35.83c1.11,1.19.24,2.7.65,4l.18.24Z"/><path class="cls-82" d="M79.28,127c0,1,0,2,0,3l-1.06,1c-2.57.37-2.88-3.11-5.25-3.08a2.35,2.35,0,0,1-.27-2.87,2.78,2.78,0,0,1,1.22-.79C76.52,123.54,77.11,126.84,79.28,127Z"/><path class="cls-36" d="M144,132c4.22-2.36,8,1.54,12,.92,6.38.35,12.76.81,19.16.59a44.43,44.43,0,0,0,6.42-.48c5.76-1.64,11.37-3.52,14.08-9.63.42-1.14.94-2.24,1.47-3.33a9.29,9.29,0,0,0,.71-2.34c1-4.63.62-5.2-4-5.36-2.62-.1-5.25.18-7.84-.17-1.4-.19-3.52,0-2.79-2.63,1.94-1.29,4.15-.8,6.25-1,3.48-.62,7.51,1.6,10.41-2,1.18-2.16.26-4.75,1.4-6.92a1.31,1.31,0,0,1,1.41-.75c3.15,3.91,1.63,7.93.33,11.95-1.34,2.93-1.53,6.12-2.12,9.22-.87,1.27-.71,2.87-1.35,4.21a27.78,27.78,0,0,1-3,5.11,12.88,12.88,0,0,1-3.12,2.53,29.49,29.49,0,0,1-6.6,3L182,136.11c-4.33,1.24-8.66-.51-13,0-7.59.52-15-.91-22.41-2.14A3.43,3.43,0,0,1,144,132Z"/><path class="cls-83" d="M61.09,31.16c-3-1.93-3.66-5.59-6-8-.1-1.06.19-2.25-1-3,0-1,0-2,0-3,.36-.88.82-1.56,1.92-1l1,1c.62,3.87,2.9,6.89,5.13,9.94,0,1-.05,2-.07,3A1.2,1.2,0,0,1,61.09,31.16Z"/><path class="cls-84" d="M56.07,16.24l-1.92,1c-.3-2.14-5,.06-3.67-3.66.58-1.65,1.82-3.23,3.48-2.92C57.29,11.23,55.72,14.2,56.07,16.24Z"/><path class="cls-85" d="M67.08,10.2a6.39,6.39,0,0,1,1,4,3,3,0,0,1-3-2.11c-.26-.69-1.25-1.51-.32-2.11C65.25,9.62,66.28,10.09,67.08,10.2Z"/><path class="cls-86" d="M82.11,16.1a4.09,4.09,0,0,1-2.42,4.32,4.52,4.52,0,0,0-2.63,4.78c-3.36-.23-3.51-2.43-3.06-5,3.26-.7,1-1.89.23-2.87-3-4-4.64-8.07-.07-12.15C79.24,7.58,82.68,12.3,82.11,16.1Z"/><path class="cls-18" d="M82.11,16.1c-1-4.85-4.66-7.75-8-10.92a2.82,2.82,0,0,1,0-1c4.46,1.79,7.13,5.5,9.64,9.26a50.86,50.86,0,0,1,6.26,12.64Q87.53,25.7,88,28.23c-2.56-2.2-.78-5.95-3-8.34C83.94,18.74,83.78,16.84,82.11,16.1Z"/><path class="cls-87" d="M74,20.2c.47,2,1.07,3.93,3.06,5,.2,2.09,1.54,3.59,2.57,5.28.69,1.13,2.31,2.7.41,3.83-1.48.89-2.2-1-2.85-2-1.69-2.63-3.74-5.1-4.12-8.36a2,2,0,0,0-1.95-1.87c-.64-1.72-2.4-3.08-1.62-5.58Z"/><path class="cls-88" d="M42.08,39.11c1.43-3.18,0-6.93,2.06-10l1,.08a77,77,0,0,0,9.26,13.86c.93,1.13,1.77,2.44,1,4.07-2.95,1.32-5,2.86-1.73,6,.42.4.07,1.25-.18,1.87a3.45,3.45,0,0,1-2.45,1.44c-2.26-.41-3-2.29-3.83-4-.56-4.25-3.84-6.62-6.54-9.4a3.71,3.71,0,0,1-.33-2.86C40.7,39.45,41.15,38.9,42.08,39.11Z"/><path class="cls-81" d="M55.2,47.07a14.29,14.29,0,0,0-4.87-7.77,13.11,13.11,0,0,1-5.14-10.09c1.57-.23,2.42.69,3.08,1.91,5.45,10.7,13.34,19.62,21,28.73a8.41,8.41,0,0,1,1,2.2c1.54,1.32,3,2.66,2.12,5-2.26.85-3.46-.87-4.5-2.2A149.7,149.7,0,0,1,55.2,47.07Z"/><path class="cls-89" d="M43.13,24.14a3.1,3.1,0,0,0-2.54,1.25c-.9,1.37-2.1,2.42-3.59,1.32s.22-2,.69-2.85c.93-1.74-.7-3.1-.56-4.7C39.7,20.13,43.44,19.7,43.13,24.14Z"/><path class="cls-90" d="M41,40.23c.06.94.11,1.87.17,2.81l-.18.72c-3.07,3.49-5.82,1.12-8.61-.48-2-2.23-2.42-5-2.61-7.79,0-1.76-.65-3.43-.68-5.18A3.51,3.51,0,0,1,31,27.17l.29,0,2.71,1c.09.31.2.61.31.92C35.61,33.38,38.19,36.89,41,40.23Z"/><path class="cls-91" d="M41,40.23c-4.18-2.53-7.35-5.68-6.75-11.11,1.12.15,3.31,0,3.17.57-1.12,4.57,3.07,6.32,4.63,9.42Z"/><path class="cls-92" d="M54.06,127.14l-2-.32,2-4.23c-5.36,2.22-9.12-3.93-14.06-1.62-.53-.69.65-1.35,0-2-.56-1.56,1.17-4.65-.6-4.55-2.84.17-5.54-4.23-8.27-.36-1.21,1.72-2.79,2.67-4.56,1.57-2.52-1.55,1.15-3,.46-4.61,1.09-3.06,3.89-2.89,6.34-3.24,1.92-.29,3.91.1,5.82-.46,4.15-1.68,7,0,9,3.58.51.46,1,.91,1.58,1.34.89.76,1.72,1.56,1.5,2.9-.45,1-1.42,1.22-2.19,1.78-1.07.77.23.77.55,1.09,2,.87,4.15.66,6.26.59,1.4,0,3.18-.82,4,.76.76,1.42-.48,2.74-1.24,4a21.31,21.31,0,0,1-1.64,1.8L55,127A.57.57,0,0,1,54.06,127.14Z"/><path class="cls-93" d="M57.13,125.07c-.05-2.1,1.5-3.55,2.39-5.76a18.72,18.72,0,0,1-11.49-.4c.79-3,3.71-2.14,5.64-2.93a31.91,31.91,0,0,1,9-2.25c1.77.08,4-.21,4.6,1.88s-1.71,2.45-2.88,3.45a7.92,7.92,0,0,0-2.21,2.57A8.48,8.48,0,0,1,60.56,124c-.76.61-1.86.32-2.61,1A3.78,3.78,0,0,0,57.13,125.07Z"/><path class="cls-94" d="M66.21,129.08l-3.13,1.74c1-4.3-.44-6.53-5.13-5.87.35-1,1.23-.93,2-1,3.83-1.69,4.77-1.16,6.76,3.78A3,3,0,0,1,66.21,129.08Z"/><path class="cls-95" d="M54.06,127.14A2.55,2.55,0,0,1,55,127a2,2,0,0,1,2.17,2H54C54.05,128.34,54.05,127.74,54.06,127.14Z"/><path class="cls-96" d="M40.17,108c-2.49,2-5.43.48-8.1,1-1.74.36-3.56.61-4.95,1.92-1.12,0-2.31.22-3.08-.94A6.24,6.24,0,0,1,29.11,108C33.71,104.65,37.33,104.67,40.17,108Z"/><path class="cls-97" d="M16.14,122c0-.64,0-1.29,0-1.93,4.48,2.1,9.38.11,14,1.93Z"/><path class="cls-98" d="M40.09,118.93c3.35.71-.47,1.35,0,2-2-.73-4.18,1.79-6.73-.43C35.81,119.55,38.33,120.53,40.09,118.93Z"/><path class="cls-99" d="M14.12,96c-2.7.36-5.39.81-8.1,1.07s-1.25,3.1-2.78,4c-1-.3-1.24-1.39-1.94-2-.79-3.63,1.62-6.21,3-9.12.52-1.12.5-2.43,1.25-3.47s1.24-2.24,1.86-3.36C10.74,79,13.69,74.59,18,71.4c1.32-.68,2.64-1.39,4.15-.49.62,1.78-.65,2.71-1.68,3.75C14,79.8,10.08,86.89,5.74,94.29c-.08,0,1.2.19.62-.15,1.53-2,3.52-1.13,5.42-.91a5.38,5.38,0,0,1,2.42,1.48A1.11,1.11,0,0,1,14.12,96Z"/><path class="cls-100" d="M1.3,99.09c1.38,0,1.82.84,1.94,2-.08,2-.15,4-.23,6l-1.94,0C-1.16,104.32.7,101.73,1.3,99.09Z"/><path class="cls-101" d="M14.12,96c0-.3.05-.6.07-.9A81.07,81.07,0,0,1,32.79,91a27.87,27.87,0,0,0,3.87.76c4.1.47,6.29,2.59,5.81,6.93-.74,1.38-2.15,1.72-3.45,2.23a8.51,8.51,0,0,1-1.65.35,134.82,134.82,0,0,1-17.29-.67c-2-.21-3.91.36-5.86.43l-.13,0C13.94,99.35,16.3,97.7,14.12,96Z"/><path class="cls-102" d="M40.17,108c-3.67-2.18-7.37-.74-11.06-.06,1.13-2.57,2-5-2-5.87,2.11-2,4.71-.68,7-1.06,2.94,0,5.69-.23,7.78,2.84,1.51,2.21,3.86.48,5.79-.3,2.19-.89,5.52-4.52,4.6,2-.26,1.85,2.07,1.2,2.76,2.25-.92,3.79-4.25,3.57-7.06,4.21C45.4,110.72,44.59,105.84,40.17,108Z"/><path class="cls-25" d="M35.1,102l-8,.09-12.89-1c5.9-1.86,12-.9,18-1,2,0,4,0,5.92,0C38.4,102.68,35.7,100.74,35.1,102Z"/><path class="cls-103" d="M182.94,133.91c-9,1.31-18.08,2.68-26.93-1a8.2,8.2,0,0,0,2-6.93c1.43-1.4,3-.87,4.62-.42a109.33,109.33,0,0,0,12.87,2.87c-4.81-.33-11.36-3.5-18.49-3.45-.78-1.45.31-3.95,2.08-4.48,1.35-.4,3.1-.07,3.68-1.79a1.82,1.82,0,0,0-1.33-2.32c-1.79-.46-3.59-2.28-5.51-.58-3.78,3.34-7.33,4.21-10.47-.69-1.08-1.69-4.29-.21-4.44-3.12.85-1.23,2.07-3.13,3.41-1.87,4,3.77,8.47,1.33,12.72,1.65a9,9,0,0,1,1.57.21c5.21,1.5,10.86-.49,15.94,2,2.68,2,5.38,1.82,7.69-.4s5.09-2.26,7.91-2,5.69.39,6.79,3.89c1.15,3.69-1.27,5.11-3.78,6.58-5.26,2.74-10.82.22-15.38.92,3.08-.28,6.91.5,10.78.68,1.58.24,3.72-.19,4.21,1.81.42,1.74-1.5,2.34-2.66,3.2C187.8,130.43,185.37,132.17,182.94,133.91Z"/><path class="cls-104" d="M157.08,113a24.79,24.79,0,0,0-5.9.75c-1.8.52-4.15,1.14-5.34-1.18-1.45-2.84-3.17-.89-4.83-.52-3.27-3.13-5-1.71-6,2a3.55,3.55,0,0,1-3.51-3.5c-.24-2.15,2.09-2.2,3.43-2.86A7.49,7.49,0,0,1,142,108c2.8-1.47,5.57-.12,8.35.07a11.2,11.2,0,0,1,2.1.91C154.09,110.21,157.16,109.76,157.08,113Z"/><path class="cls-105" d="M157,125c5.32-2.5,10.18,1,15.26,1.4,2.22.19,5.07-.15,7.11,2.21-1.34,2.12-3.27,1.26-5.09,1-5.56-.65-10.63-3.43-16.28-3.65C157.66,125.66,157.33,125.32,157,125Z"/><path class="cls-59" d="M143.1,119c-3.23.45-5.47-1.84-8.12-3,0-.33,0-.67,0-1A20.3,20.3,0,0,1,143.1,119Z"/><path class="cls-106" d="M151,109a23.81,23.81,0,0,1-9-1c.57-3.22-.59-6-2-8.83a2.27,2.27,0,0,1,2-.85c3.87,1.2,8.21-.31,11.92,2.33,1.83,1.3,2.54-.54,2.85-2.07.65-3.31,2.7-4.71,6-4.51,2.53.94,4.89,1.76,6.44-1.66.88-1.94,2.79-2.63,4.95-2.27a5.19,5.19,0,0,1,3.59,2.54c.58,1.13.7,2.45,1.81,3.37,2.29,1.88,2.39,4.07.51,6.35-2.77,1.89-5.81-.18-8.66.6-3.41,1.77-7.77.81-10.77,4.18-1.41,1.58-3.3-.42-4.92-1.09C152.1,104.63,151.33,105.12,151,109Z"/><path class="cls-107" d="M118,111l-2.85-1a1.23,1.23,0,0,1-.33-.86c0-.32,0-.47.1-.47,4.33-3,5.84-8.9,11.21-10.89,1.54-.56,2.88-1.66,4.67-1.36a3.21,3.21,0,0,1,2.27,1.73c-6.39.43-4.39,5.48-4.9,9.06-.12.82,1.11,1.85-.17,2.54a2.32,2.32,0,0,1-2.78-.31C121.74,105.48,119.78,107.74,118,111Z"/><path class="cls-108" d="M133.06,98.14l-2.13-1.07c-.78-1.39-.14-2.15,1.2-2.39a30,30,0,0,1,5.74-.67c5.19.32,10.53-.21,15.21,2.84.27,2.16-1,2.37-2.73,2.27-2.78-.16-5.58,0-8.37-.15l-2,.21C137.65,99.2,135.52,97.55,133.06,98.14Z"/><path class="cls-109" d="M98,115.07c-2.73,1.53-5.37.28-8-.27-4.51.58-5.33-2.09-5.07-5.73.76-1.67,4-.21,3.83-3.08a2.2,2.2,0,0,1,.9-1.67,3.33,3.33,0,0,1,2.6-.65,10.16,10.16,0,0,1,4.36,3.25c.66,1.1.81,2.63,2.47,2.87.61.11,1.21.25,1.82.35,1.51.35,2.13-.84,2.94-1.7a3.08,3.08,0,0,1,3.15-.88,2.35,2.35,0,0,1,1.38,2.17c-.46,1.38-3.86.48-2.53,3.26-.81,3-3.22,3.12-5.69,3.08C99.32,115.92,98.81,115.17,98,115.07Z"/><path class="cls-110" d="M105.81,113c-1.73-2.85,0-3.06,2.23-3a1.49,1.49,0,0,1,1.9-.31,1,1,0,0,1,.36.8c0,.31,0,.46-.11.46-.12,1.68-.33,3.53-2.48,1.52C106.47,111.34,106,111.23,105.81,113Z"/><path class="cls-111" d="M114.87,109.11a4.48,4.48,0,0,0,.27.88c-.18.84-.23,1.77-1.25,2.13-2,.09-2.58-1.36-3.25-2.77a2.55,2.55,0,0,1,1.11-1.64,3,3,0,0,1,1.31-.3A1.92,1.92,0,0,1,114.87,109.11Z"/><path class="cls-112" d="M98,115.07c1.67-1.7,1.86-.27,2.12,1L99,118.9C97.26,118,98.42,116.32,98,115.07Z"/><path class="cls-113" d="M111,109.09l2.92,3c.22.7,1.51,2.15-.68,1.36-1.16-.43-2-1.65-3-2.51a3.13,3.13,0,0,1-.18-1,.76.76,0,0,1-.31-.68c0-.25.1-.38.17-.38A.92.92,0,0,1,111,109.09Z"/><path class="cls-114" d="M177.07,41.18l.15,3-.24.57a6.54,6.54,0,0,0-.81,3.7,7.11,7.11,0,0,1-1.81,4.86c-1.1,1.11-2.45,2.3-3.39-.25-.33-2-.65-4-1-6,2.78-.28,1.73-2.46,2-4L175.39,38C176.39,38.88,175.56,40.64,177.07,41.18Z"/><path class="cls-20" d="M136.09,35.16,134,37.23c-1.17-.75-1-1.92-.95-3.06.95-1.25,1.91-2.49,2.85-3.76,1.56-2.11,2.25-.5,3,.7A5,5,0,0,1,136.09,35.16Z"/><path class="cls-60" d="M136.09,35.16l2.88-4,2.42,1.62c3-4.47,6.47.05,9.67-.55a3.3,3.3,0,0,1-2,3c-5.53.16-5.53.16-4,6-.09,2-1.52,3.07-3,4.07,0-2.68-2.83-4.53-1.47-8C141.41,35.2,138,35.22,136.09,35.16Z"/><path class="cls-115" d="M136.05,53c6-1.94,7.71-8.18,11.95-11.89-.18,3.5-.11,7,2,10,.07,2.24-1.76,3-3.19,4s-3.18,1.8-3.9,4.89c3.2-1.37,5.77-2.34,7.24-5,.79-1.45,1.28-3,2.87-3.88a37.21,37.21,0,0,0,3.37-1.93c1.17-.83,2.34-1.46,3.57-.38,1.51,1.32.16,2.4-.2,3.79-1,3.76-1.19,7.72-1.7,11.6.09,3.28-2.71,4.35-4.63,6.11-6.57,3.61-12.16,9.21-20.16,9.94-2.64-.11-5.39-2-7.76,1.21-.86,1.15-2.74,0-4.11-.43-1.84-.46-3,1.17-4.63,1.47a3.89,3.89,0,0,1-3-1.22c-.79-1.35-.33-2.93-.76-4.35.73-.27,1.6-.94,2.18-.75,3,1,5.59,1.18,8-1.47,1.13-1.25,3.12-.53,4.73-.63,4.58-1.77,7.58-5.64,11.36-8.48.76-.57.13-1.11-.31-1.57,1.12-1.61,2.41-3.25-1.22-2.93-2.6.22-5.08,1.45-7.77,1a101.27,101.27,0,0,0-7,8c-2.78-3.26-2.11-5.51,2.54-7.93,2.6-1.35,5.21-3,8-3.58C137.48,57.71,137.49,55.84,136.05,53Z"/><path class="cls-116" d="M128.91,45.15a95.53,95.53,0,0,1-9.88,15c-1-.35-1.36-1.29-1.88-2.08a49.8,49.8,0,0,1,9.8-14C128.11,43.5,128.53,44.3,128.91,45.15Z"/><path class="cls-117" d="M113,76.93c4,.45-.16,3,1.09,4.19-.41,2.24-1.87,3.73-3.12,1.17a6.93,6.93,0,0,0-4.42-4c-3-1-2.6-4.36-4.36-6.22-.3-2.18.92-2.84,2.84-3,2.42-.16,1.8,1.74,2.14,3v3.52c1.32-.64,1.48-3,3.12-2.33,1.32.52.27,1.89.29,2.91C110.64,78,112.14,76.85,113,76.93Z"/><path class="cls-118" d="M139,64l2.4-.27c-2.08,4.79-9.53,10.51-13.45,10.32C130.8,69.82,135.52,67.6,139,64Z"/><path class="cls-119" d="M117.15,58.05A1.86,1.86,0,0,1,119,60.13c-1.57,1.37-2.3,5.57-4.25,4.07C112.67,62.57,116.12,60.14,117.15,58.05Z"/><path class="cls-120" d="M123.05,70.07c1.49-3.38,3.36-6.43,7-8C128.59,65.54,126,68,123.05,70.07Z"/><path class="cls-20" d="M128.91,45.15l-2-1.1c0-1.69,1.51-2.54,2.11-3.9l0,0C133.17,42,129.41,43.5,128.91,45.15Z"/><path class="cls-121" d="M89.11,62c6,1.75,6.9,1.18,8-5,2-1,3.71-1.38,2.83,1.83-.52,1.93-1.4,3.76-.11,5.69,2.29,3.44,1.31,5.19-2.78,5.31a1.62,1.62,0,0,1-1.21,1.51c-2,0-2.61-2.41-4.45-2.78a3.25,3.25,0,0,1-1.07-.84C89.44,66,87.67,64.44,89,62.16Z"/><path class="cls-122" d="M102.22,72.07c1.26.09,2.55.63,2.58,1.88.06,2.92,2.21,3.51,4.23,3.91s3.44,1.09,2.78,3.51c-.17.64-.34,1.53.58,1.35.65-.13,1.16-1,1.73-1.6l2.82.77c1-.19,1.46.42,1.75,1.25.21,2.37-1.17,3.45-3.22,4-1.76.27-3.55.28-5.32.39a1.92,1.92,0,0,1-1.75-1.94c.85-3.11-1.73-3.43-3.57-4.35a6.52,6.52,0,0,1-1.15-.72,7.73,7.73,0,0,1-2.2-3.46,4,4,0,0,1,.32-2Z"/><path class="cls-123" d="M102.24,77.05l1.81,2.83c-.9,1.47-2.52,1.47-3.92,1.91a5.18,5.18,0,0,1-2.25-.11c-1.9-.83-3.6-1.82-3.36-4.3,1.27-1.92,1.23-4.15,1.46-6.32l1-1.17c5.07.1.73,4.83,3.09,6.26C100.73,76.67,101.3,77.31,102.24,77.05Z"/><path class="cls-124" d="M102.24,77.05c-.29.5-.73,1.47-.85,1.44a1.93,1.93,0,0,1-1.27-2.34l1.68-1.1C102,75.71,102.1,76.38,102.24,77.05Z"/><path class="cls-71" d="M153,51.12c-1,4.57-3.46,7.9-8,9.48-1.12.39-2.25,1.71-3.3-.18-.88-1.59-.6-2.64.94-3.7,2.53-1.75,4.9-3.73,7.35-5.61Z"/><path class="cls-125" d="M153.09,69.22l4.95-5a3.91,3.91,0,0,1,.91-.11l4.06.12c.41,2.31-1.51,3.25-2.71,4.62A9.57,9.57,0,0,1,155.73,71C154.54,70.88,153.08,71.14,153.09,69.22Z"/><path class="cls-126" d="M166.94,52c.9,3-.95,5.42-2.46,7.38s-2,.3-1.54-1.38Z"/><path class="cls-127" d="M145.08,41.16a5.14,5.14,0,0,1-1-1c-.94-1.71-3.16-3.14-1-5.51,2.33-2.61,4.05,0,6,.54A11.37,11.37,0,0,1,145.08,41.16Z"/><path class="cls-128" d="M171,53.1c3.23,0,3.64-.6,4.05-6,.93-.18,1.39.38,1.74,1.1.67,2.09,0,4-.85,5.83a47.24,47.24,0,0,0-2.15,4.55c-1.21,1.93-.79,4.88-3.6,5.83-1.54-.56-3.15-1-4.22-2.4C169.51,60.1,167.86,55.26,171,53.1Z"/><path class="cls-129" d="M165.94,62c1.59.34,3.82-.56,4.14,2.18-.37,3.76-2.9,5.29-6.22,6-1.68,0-3.23-.28-3.9-2.14,1-1.28,2-2.56,3-3.83Z"/><path class="cls-130" d="M72.05,67c.31-2-2.37-2.89-1.86-5,2.38-1,5-1.52,6.58.92,2.59,4,4.84,3.64,7.37.15,2.62,1.24,3.81,4.45,6.94,5l0,0a2.38,2.38,0,0,1,.75,2c-.56,2.89-3.45,2.89-5.24,4.27a5.58,5.58,0,0,0-2.89,3.26,2.4,2.4,0,0,1-2.38,1.08,3.74,3.74,0,0,1-2.38-1.45c-.39-1.77,1.79-2.31,1.87-4-1.28-.53-3,.74-4-.81a6.84,6.84,0,0,0-4.11-3.72C72.1,68.26,71.66,67.78,72.05,67Z"/><path class="cls-131" d="M78.07,46.13c2,.31,2.17,1.21.76,2.52-.77.72-2.34,1.16-.66,2.5a26.1,26.1,0,0,1,5.48,8.67,2,2,0,0,1-.52,1.26c-2.9-.42-6.82.8-6.37-4.61.13-1.65-2-1.35-3.24-1.35-2.64,0-2.65-2.19-3.15-3.77-.68-2.17,1.1-1.6,2.32-1.9,1.65-.41,1.31-2.05,1.4-3.34C75.42,45.16,76.74,47.41,78.07,46.13Z"/><path class="cls-132" d="M87.94,30.14c1.15,4.71,4,8.92,4,14C86,42.32,87.5,35.63,84.07,31.9,82.29,30,86.31,30.34,87.94,30.14Z"/><path class="cls-133" d="M78.07,46.13c-1.34,4-2.65-.18-4,0-.36-3.29-2.74-5.69-3.86-8.65a22.29,22.29,0,0,1-1.53-5.59C74.16,35.14,74,42,78.07,46.13Z"/><path class="cls-134" d="M83.2,60.07c-1.82-2.9-4.62-5.24-5-8.92.84-.27,1.84-1.57,2.51-.45,1.7,2.84,4.91,4.74,5.24,8.41C85.36,60.4,84.6,61.16,83.2,60.07Z"/><path class="cls-116" d="M83.2,60.07l2.72-1,3.08,3q1,3,2.08,5.93c-4.7,1.67-5.06-2.72-6.94-5,1.14-1.41-.42-1.48-1-2C83.15,60.74,83.17,60.41,83.2,60.07Z"/><path class="cls-135" d="M61.09,31.16l1-1c2.06,1.2,2.76,3.27,4,5.7C62.58,35.58,61.46,33.75,61.09,31.16Z"/><path class="cls-136" d="M79.28,127c-2.59,1.43-3-2.68-5.3-2-1.51-2.72,2.52-4,1.69-6.57a3,3,0,0,1,3.53-2c1.28.59,3.32.38,2.92,2.75C81.17,121.73,80.23,124.36,79.28,127Z"/><path class="cls-137" d="M85,109.06c1,2.49,2,5,4.94,5.74-1.56,2.2-4.18-.34-5.86,1.31a4.82,4.82,0,0,0-3.41-2.27,4.67,4.67,0,0,1-1.18-.65,3.62,3.62,0,0,1-1.2-3.13,2.91,2.91,0,0,1,.57-1.22c1.19-.82,2.55-.32,3.83-.49a3.74,3.74,0,0,1,1.87.25Z"/><path class="cls-138" d="M80.09,113c1.57.73,5.82-2,4,3.09l-2,3L79,117C78,115.26,78.69,114,80.09,113Z"/><path class="cls-139" d="M76.17,118.85c3,3.37-3,3.48-2.19,6.08a3.26,3.26,0,0,1-.93.08c-2.35,1.26-4.14,3.43-6.84,4.07V128c-.25-3.78,2-5.64,5.16-6.86C73.15,120.75,74.37,119.19,76.17,118.85Z"/><path class="cls-140" d="M151,109c-.25-1.6-3.33-2.38-2-4,1.6-2,4.36-1.22,6.54-.56s4.32,4.66,6.6-.54c.33-.76,5.67-1.45,8.76-1.86a5.83,5.83,0,0,1,3.38.67c1.56,1.07,4.22,2,3.44,4.08s-3.42,1.11-6.41,1.09c4.65.54,8.46-.06,11.68,2.13,3.74,2,7.77.8,11.65.94,6.34.23,6.38.08,4.6,6.47-.34,1.23.09,2.76-1.27,3.63-1.7.91-3.38,1.59-5-.12,1-1.57,4-1.34,3.18-4.69-.7-2.77-2.46-3.37-4.47-3.78-2.62-.53-5.37-1.55-7.55,1.44-2.62,3.58-5.73,3.85-9.14,1.19.52-1,.83-1.72-.83-1.83-3.73-.24-7.38-1.15-11.14-1.21-3.92.82-7.22-1.68-10.92-2Z"/><path class="cls-141" d="M201.93,100.13c-.39,2.29.94,4.82-1,6.88-3.63-1.14-4.36-4-4.47-6.78-2.52,2.92-7,3.17-10.46,5.43a3,3,0,0,1-1.47-.38,7.15,7.15,0,0,1-2.11-2.37c-2-5.1-.58-7.67,4.66-8.13a52.14,52.14,0,0,1,7,0C197.32,95.59,201,95.9,201.93,100.13Z"/><path class="cls-142" d="M185.05,105.06A55.92,55.92,0,0,1,196.7,99.6a23.08,23.08,0,0,0,4.23,7.41c.25,2.39-1,3.13-3.18,3-2.58-.12-5.18-.06-7.77-.08-1-.74-2.24-.36-3.37-.46C182.83,109.19,182.69,108.78,185.05,105.06Z"/><path class="cls-102" d="M185.05,105.06c-2.73,6,3.82,2.74,4.93,4.91l-7,0c-4.18-.36-8.37-.68-12.55-1.09-1-.1-2.08-.46-1.64-1.81a1.58,1.58,0,0,1,2-.92c2,.61,4,1.22,6.29.54L174,103.1c3.9-.75,7.62-.47,11,1.9Z"/><path class="cls-143" d="M182.94,133.91c1.8-4.09,5.74-5.73,9.46-8-1-1.32-2.37-.71-3.47-.93.9-3.43,4.54-3.86,8-.93C194.23,130.08,188.74,132.22,182.94,133.91Z"/><path class="cls-144" d="M196.94,124c-2.81-.85-5.75-2.91-8,.94-4.64,0-9.16-1.53-13.85-1-1.09.12-2.63-.08-2.3-1.73.26-1.24,1.45-.74,2.47-.66,5.91.44,11.86,1.41,17.7-.61l5,.12Z"/><path class="cls-145" d="M201.93,100.13c-1.56-2.61-4.4-3.1-6.91-4.13-1.68-.94-4-.19-5.39-1.91a2.22,2.22,0,0,1,.06-2.08,3.23,3.23,0,0,1,3.74-.18c3.36,1.74,4.15-.06,4.36-2.89a1,1,0,0,1,1.26.09q1.5,4.92,3,9.85C202,99.3,202,99.71,201.93,100.13Z"/><path class="cls-146" d="M72.05,67c.33.36.67.71,1,1.07,1.49,1.2,2,3.37,4.07,4a8.21,8.21,0,0,1,.91.36c1.82,1,2.73-4.38,4.42-.9,1.25,2.58-1.37,4.22-3.36,5.6.32,2.18-1,3-2.83,3.26-1.59.07-1-3.38-3.38-2a4.79,4.79,0,0,1-2.58-3.13c-2.67-3.87-6.47-7-7.13-12.12A1.88,1.88,0,0,0,61,61.46c-2.21.28-1.81,2.54-2.81,3.75-2.78.26-3.86-1.51-4.54-3.77.21-2.35,2.11-3.14,3.9-3.94-2.42.79-3.75-.21-4.46-2.43a7.07,7.07,0,0,0-.6-2.33c-.82-1.16-3.95-.16-3.09-2.86S52.77,47,55.2,47.07c5.3,4,7.76,10.29,11.93,15.21C68.62,64,70,65.88,72.05,67Z"/><path class="cls-77" d="M47.93,52.12l3.14,4.07a4.59,4.59,0,0,1,2.22,5c-3.09,1.65-3.95-2.06-6.3-2.66-.64,3.36,3.93,4.38,3.26,7.59-4.11,1.41-5.17-2.75-7.72-4.21a3.76,3.76,0,0,1-1-2c-.39-3.56-1.93-7.58,3.49-8.86A3.61,3.61,0,0,1,47.93,52.12Z"/><path class="cls-147" d="M47.93,52.12H45.11c-4.91-1.33-4.82-5-4.08-8.87l.17-.2C45.19,44.77,48.05,47.35,47.93,52.12Z"/><path class="cls-148" d="M53.24,61.05c-.86-1.55-2.05-3-2.17-4.86a2.18,2.18,0,0,1,2-1.12,9.12,9.12,0,0,0,6,2.26l-5.07,3.78A.49.49,0,0,1,53.24,61.05Z"/><path class="cls-149" d="M37,51.09c-1.21-2.65-2.42-5.31-3.64-8,2.57.45,5.11,2.61,7.71.1,1.21,3,.36,7,4.08,8.88-3,.26-3.13,2.3-2.93,4.58.11,1.19,1.37,2.39,0,3.57l-.62-.2a9.49,9.49,0,0,1-2.09-2.46,20.76,20.76,0,0,1-1.39-2.19C37.43,54,36.44,52.76,37,51.09Z"/><path class="cls-150" d="M63.08,115l-15,3.92c-3.63-5,2.91-1.89,3.07-3.85,1.27-.29,2.51-.64,3.75-1,2.88-.68,5.69-1.44,8-3.41,1.58-1.34,3.17-1.73,4.52.35C67.91,114.41,65.07,114.25,63.08,115Z"/><path class="cls-102" d="M54.12,115.05c-1,1.23-2,1.27-3,0a3.44,3.44,0,0,0-2-2.08c1.68-3.21,4.84-3.2,7.82-3.59C60.43,112.82,60.2,113.29,54.12,115.05Z"/><path class="cls-151" d="M57.1,110c-2.93.31-5.76.89-8,3l-1-1c1.84-2.25,5-2.18,7.06-4,1.9-1.76,4.21-2.07,6.67-1.87a2.45,2.45,0,0,1,1.71,1.42C62.67,111.81,59.76,110.6,57.1,110Z"/><path class="cls-152" d="M63.08,115c1.57-1.08,3.5-1.81,4-4,1.33-1.36,2.87-1.26,4.49-.64,1.9,2.08-.29,3.77-.55,5.64a10.86,10.86,0,0,1-2.3,3c-2.12,2.11-3.92,5.1-7.66,2.87.07-3.55,2.9-4.57,5.69-5.48C65.71,114.43,64.22,115.28,63.08,115Z"/><path class="cls-153" d="M61.06,121.89c3.36.55,5.25-1.51,6.94-3.92,1.33,1.13,3.29.22,4.6,1.44A2.19,2.19,0,0,1,72,122,9.25,9.25,0,0,0,66.22,128c-1.4-2.41-2.41-5.42-6.25-4.12C60.12,123.11,60.19,122.28,61.06,121.89Z"/><path class="cls-154" d="M12.06,94c-2.23,0-5.72.77-6.45-.29-1.72-2.53,1.7-4.19,2.9-6.16,3.1-5.09,5.77-10.69,11.62-13.46a16.62,16.62,0,0,0,5.13-1.58c2.84-1.41,5.23-.67,6.79,1.85,1.78,2.87-.79,4-2.65,5.26-1.28.85-3,.14-4.17,1.24,2.57.94,3.28,2.74,2.15,5.07-.94,1.94-1.45,4.81-4.64,4-2.94-.78-3.41,2-5,3.08C16.06,94.46,14,93.94,12.06,94Z"/><path class="cls-34" d="M29.07,79c.14-1.71,4.33-1.73,1.9-4.52-1.86-2.13-3.72-2-6-.41-1.42,1-3.24,1.84-4.87,0,.66-1,1.33-2,2-3.07-.16-1.74,1.17-2.14,2.38-2.64a7,7,0,0,1,2.42-.06c4.44-.18,8.86-.9,13.32-.59,1.79.13,3.7-.16,5,1.56-1.15,3-5.41,1.88-6.56,4.9-.57.56-1.44.67-2,1.31,1.77.91,3.9.85,5.33,2.35-.28,1.34.2,2.62.31,4C37.61,82.08,33.3,80.75,29.07,79Z"/><path class="cls-155" d="M12.06,94c1.27-1.78,3.83-.11,5.09-1.9,6.44-3.48,13.71-2.19,20.52-3.51a18.24,18.24,0,0,1,4.43,0c4.72.42,9.71-1.45,14.13,1.59.56,2.92-1.65,2.18-3.09,2.24-3.25.13-6.54-.33-9.72.72a5.9,5.9,0,0,1-1.73.06c-2.78-.93-5.76-.28-8.56-1.07-6.44.22-12.37,3.66-18.94,3A2.29,2.29,0,0,1,12.06,94Z"/><path class="cls-156" d="M62.07,107l-7,1c-4.63.76-5.09-1.31-2.52-5.93-2.41,1.52-3.71,2.8-5.24,3.19-2.66.68-6,3.34-7.46-1.88-.66-2.36-3.13-1-4.77-1.39l3-2,.89,0a64.61,64.61,0,0,0,15.91-1.9,8.67,8.67,0,0,1,6.89,1.08C64.05,101.71,64.46,104.3,62.07,107Z"/><path class="cls-157" d="M55.14,99.08c-5.3,1.81-10.62,3.23-16.15.93.74-1.15,2-1,3.06-1.07,1.33-1.4,3.21-1.41,4.89-1.93A24,24,0,0,1,50,96.64c1.77-.11,3.59-1.1,5.29.24A1.85,1.85,0,0,1,55.14,99.08Z"/><path class="cls-156" d="M47.1,98a6.87,6.87,0,0,1-5.05,1c-.12-6-5.21-5.51-8.92-6.81h9C43.65,94.18,47.09,94.61,47.1,98Z"/><path class="cls-158" d="M169,73c7.48.42,14.95.87,21.05,6.07.06,1,.7,2.07-.71,2.62a3.56,3.56,0,0,1-1.94-.1c-2.74-1.09-5.44-2.26-8.47-2.23-3.3,0-6.15-1.81-9.31-2.39a27.17,27.17,0,0,0-15.47.51,3.26,3.26,0,0,1-3.28-.32c-.29-1.61.76-2.37,1.92-3.07,2.51-1.15,5.26-1.35,7.88-2.06C163.52,71.73,166.41,71,169,73Z"/><path class="cls-159" d="M199.05,89l-1.18.08c-3.32,1.82-5.8-.72-8.6-1.66-2.35-1.72-5.17-1.9-7.88-2.52-2-.46-4.38-.18-5.67-2.37a2.33,2.33,0,0,1,1.07-2A5,5,0,0,1,179,80c3,0,5.75,1.28,8.56,2.15,2.6.89,5.1,2.07,7.74,2.84l.67.16C197.52,86,199,87,199.05,89Z"/><path class="cls-152" d="M189.94,81c-.1-.68-1.09-1.4.11-2A8,8,0,0,1,196,85.1h0A7,7,0,0,1,189.94,81Z"/><path class="cls-160" d="M163.05,111l15.6,1.46A4.14,4.14,0,0,1,175,115.1c-5.47-2.16-11.53.21-17-2.21C158.83,110,161.7,112.45,163.05,111Z"/><path class="cls-161" d="M163.05,111c-1.18,2-3.77.23-5,1.94l-.46.08h-.47c-.75-2.54-3.77-1.19-5-2.92Z"/><path class="cls-162" d="M174.05,91c-2-.07-3.69.48-4.26,2.56-1.35,4.91-3.93,3.77-6.8,1.49-2.84-1.84-6.12-1.46-9.27-1.77-.95-1.84-3.77-2.89-2.41-5.71A7.61,7.61,0,0,1,156,86.8c4.88.73,9.64,2.5,14.7,1.65C172.27,88.64,173.94,88.77,174.05,91Z"/><path class="cls-163" d="M154,93c3.3-.69,6.59-1.33,9,2-3.3,0-5.38,1.17-5,4.93.27,2.85-2.23,4.11-3.59,2.77-3.42-3.37-7.53-2-11.29-2.88-.42-.09-.75-.58-1.12-.89,2.65-1.84,5.58-.91,8.36-.65,1.38.13,2.12,0,2.64-1.21-1.28-.87-2.15-2-1.33-3.55A1.45,1.45,0,0,1,154,93Z"/><path class="cls-102" d="M189.86,93.94c1.79.52,3.68.77,5.16,2.06-2.47,0-4.94,0-7.41,0-5.52.15-6.6,2.25-3.65,7-1.74,1.13-3,.58-4-1.09,0-2.09,1.29-4.5-2.19-5.42-1.34-.36-.67-2.33-.77-3.59,1.83-.77,3.74-.07,5.59-.34C185.07,92.76,187.69,92.15,189.86,93.94Z"/><path class="cls-18" d="M182,93.92a6.37,6.37,0,0,1-5-1l-3-2-3-1.87c-1.94-.72-5.53,1.46-5.33-3a3.39,3.39,0,0,1,3-.91c4.35,1.26,9,1.61,13.11,3.63C182.61,90.48,181.91,92.21,182,93.92Z"/><path class="cls-164" d="M180,102a6.47,6.47,0,0,0,4,1.09c.32.65.64,1.3,1,2l-11-1.91c-1.09-.14-2.32.11-3.06-1C173.9,100.19,177,103.08,180,102Z"/><path class="cls-165" d="M114.87,109.11l-1.73-1.24c-.37-2.64,2.11-2.59,3.41-3.66,1.26-3.09,1.86-6.43,3.66-9.29.68-1.57,2.31-1.82,3.56-2.59A2.38,2.38,0,0,0,125,90.05c5-.17,3.28-4.87,4.94-7.29a2.89,2.89,0,0,1,2.08-.28c3,1.06,5.25,2.61,4.95,6.32-.11,1.36,1.24,2.27,1.69,3.49a2.63,2.63,0,0,1-.67,2.78c-2.35.68-5.12-.1-7.06,2-4.15,1.53-8.29,2.9-10.33,7.52C119.59,106.91,117.19,108.1,114.87,109.11Z"/><path class="cls-166" d="M138,95.07v-3c1.57-3.6,4.48-5.13,8.25-5.34,1.7.06,3.48-.12,4.74,1.42.81,1.75,3.67,2.26,3,4.91-3.31.61-1.47,2.51-1,4.07Z"/><path class="cls-167" d="M91.82,104.1l-1.84.8a7.68,7.68,0,0,1-2.6-3.43c-.32-2.2.73-3.24,2.85-3.39,2.51,1.15,5.25-.11,7.8.7.78,1.17.2,2.25-.21,3.34a5.66,5.66,0,0,1-1.64,2.2A6.86,6.86,0,0,1,91.82,104.1Z"/><path class="cls-168" d="M89,105.92c2.38.65,2.86,1.84.45,2.92-1.25.56-2.93.18-4.41.22h0c-1.43-1.78-3-3.56.52-4.81A3.71,3.71,0,0,1,89,105.92Z"/><path class="cls-169" d="M110,109a8.17,8.17,0,0,1,0,1h-2l-.84-1.86a2.7,2.7,0,0,0-.73-1.48,3.15,3.15,0,0,0-2.28-1c-3.31-.49-3.38-2-1.27-4.14a4.24,4.24,0,0,1,2.16-.49,4,4,0,0,1,2.7,1.24C109.28,104.29,111,106.2,110,109Z"/><path class="cls-170" d="M98.7,110.89c-3.15.36-2.64-2-2.81-3.8a2.64,2.64,0,0,1,1.31-2.32c1.45.09,2,1.17,2.54,2.27a5.66,5.66,0,0,1,.3,1.46C100,109.52,99.91,110.52,98.7,110.89Z"/><path class="cls-171" d="M97.05,104.85c-.14.87-.22,1.78-1.16,2.24-1.38-1-3.48-1-4.07-3,1.35-1.28,2.87-.06,4.3-.3C96.86,103.77,97.2,104.09,97.05,104.85Z"/><path class="cls-172" d="M89,105.92c-1.23.48-1.92-.59-2.85-1a1.16,1.16,0,0,1-.4-1.17c.47-1,.83-2.15,2.34-1.86,2.15,0,2.09,1.49,1.91,3C89.64,105.24,89.31,105.58,89,105.92Z"/><path class="cls-173" d="M108.05,107a1,1,0,0,1-.85,1.2l-3.09.89a1.25,1.25,0,0,1-1.36.19,2.43,2.43,0,0,1-1.12-2.59c.64-1.45,2.07-1.06,3.21-1.36C106.11,105.46,107,106.44,108.05,107Z"/><path class="cls-174" d="M103,109l1.08.06c-.49,1.58-.53,3.87-3.18,2-.47-1.06.14-1.71.88-2.31A1.07,1.07,0,0,1,103,109Z"/><path class="cls-175" d="M102.06,109c-.37.67-.75,1.34-1.13,2l-2.23-.16c.1-1,.21-1.93.32-2.89C100.4,107.29,101.25,108.1,102.06,109Z"/><path class="cls-176" d="M110,109c-1-2.08-2-4.17-3-6.25,1-1.85-1.21-2.54-1.43-4a1.9,1.9,0,0,1,1.07-2.24c.91-.56,2.54.44,2.87-.82.28-1.06-1.4-1.52-1.85-2.53a3,3,0,0,1-.14-2,6.92,6.92,0,0,1,2.12-2.7,2.74,2.74,0,0,1,2.46-.69c.8.58,1.42,1.46,2.5,1.64A4.55,4.55,0,0,1,117.28,91a3.62,3.62,0,0,1-.49,2.55c-.92,1.77-1.29,3.76-2.15,5.55-.37,1.84-4.2,1.66-2.66,4.6,0,1.5,0,3,.06,4.48l-1.06.89-.48-.09Z"/><path class="cls-177" d="M112,108.2c-2.43-1-.7-2.79-.78-4.24a2.31,2.31,0,0,1,1.82-.66c1.26.4,2.63,0,3.88.45a.88.88,0,0,1,.31.76c0,.28-.08.42-.14.42-.88,1.6-3.43.92-4,2.94Z"/><path class="cls-77" d="M176.89,44.09c0,1.34,0,2.68-.08,4-.21.46-.47.49-.78.1s-.67-.76-1-1.13C175,45.67,174.89,44.23,176.89,44.09Z"/><path class="cls-178" d="M146.07,88c-3.7-.66-5,3.42-8.07,4-1.76-.87-3.62-1.54-2.42-4.27,1.51-3.43-3.39-2.36-3.56-4.71-1.7-1.85-3.35-.19-5,.06-1.94.28-3.79,1.25-5.83.75a2.38,2.38,0,0,1-1.58-1.43c-.37-1.43.88-2.22,1.33-3.32,2,1,3.81,3.4,6-.39,1.55-2.69,4,1.3,6.17.35,1.47,1.45,4-.92,5.21,1.41-.32,2.58.7,4,3.41,4.26,1.6.13,3.33-.05,4.61,1.28A1.76,1.76,0,0,1,146.07,88Z"/><path class="cls-179" d="M138.11,81c-1.21-1.87-3.87.13-5-1.89,7.94-.72,13.29-6.68,20-9.87.74,1.08,1.89.81,2.94.9a2.65,2.65,0,0,1-2.47,3c-2.37.29.58,1.63-.56,2a3.18,3.18,0,0,0-1.84,2.12C148.18,80.71,142.21,82.44,138.11,81Z"/><path class="cls-180" d="M120.92,79.13c.39,1.18-.49,1.94-1,2.84-.32.78-.73,1.43-1.75,1.11-.43-.39-.85-.79-1.27-1.19C117.69,80.13,119.47,79.87,120.92,79.13Z"/><path class="cls-181" d="M91,70.07c0-.67,0-1.34,0-2,4.12-3.07,2.59,3.13,4.93,3,1.27,2.2,2.35,4.37-.88,5.91C92.75,76.31,93.77,74,93,72.62,92.37,71.74,91.71,70.9,91,70.07Z"/><path class="cls-182" d="M118.21,83.08,120,82,121,83.06c3,1.74,6-2.32,9,.09a5.22,5.22,0,0,0,0,1c1,4.19,0,7-5,6.77-1.58,1.72-3.12.84-4.67,0-1.16-2.29-3.47-2.28-5.54-2.74a1.44,1.44,0,0,1,.19-1.88A3.1,3.1,0,0,0,118.21,83.08Z"/><path class="cls-183" d="M110.08,88.89c-.65.74-1.29,1.48-1.94,2.21a3.21,3.21,0,0,1-.93-.66c-.79-.55-1.61.1-2.41,0a4.87,4.87,0,0,1-3.32-2.46,2.45,2.45,0,0,1,2.75-3.56c.74.86,1.67.43,2.55.33.73.4,1.58,0,2.32.37,0,.78,0,1.54.8,2A1.14,1.14,0,0,1,110.08,88.89Z"/><path class="cls-184" d="M105,85h-1.84c-1.39-1.07-3.36-1.66-3.31-3.94,1-1.85,2.87-.59,4.24-1.14a3.27,3.27,0,0,0,.91.31A4.43,4.43,0,0,1,106.45,83,2.77,2.77,0,0,1,105,85Z"/><path class="cls-185" d="M106,83l-1-2.78c1.56,1.47,6.59,0,4.14,4.88-.7.07-1.41,1.09-2.07,0A2.68,2.68,0,0,1,106,83Z"/><path class="cls-186" d="M110.08,88.89l-.18-1.84c1.46-1.81,3.39-.73,5.13-.82,0,.62.09,1.24.13,1.86.15.79-.25,1.17-1,1.28-1,0-1.52-.74-2.24-1.18Z"/><path class="cls-187" d="M99.81,81c.81,1.56,3.72,1.36,3.31,4-1.23.72-1,1.92-1,3.06.31,1.42-.64,1.46-1.61,1.46s-.78-1.51-1.56-1.31c-.59.15-.39,1.09-.4,1.71a4.23,4.23,0,0,1-.46,1.71,2.42,2.42,0,0,0,.22,2.2,2.34,2.34,0,0,1,0,1.26c-2.8,3.66-2.8,3.66-7.66-.8-1-1.92-3.3-1.91-4.82-3.07a2.73,2.73,0,0,1-.45-2,2.08,2.08,0,0,1,1.21-1.54c1.66-.44,3,1.44,4.71.64a3.77,3.77,0,0,0,1.94-2c.33-1.43-1.1-2.14-1.34-3.32a2.26,2.26,0,0,1,1.76-2.47A19,19,0,0,1,98,80.8Z"/><path class="cls-188" d="M98,80.8c-1.29.32-2.56,1.12-3.88.08s-1.48-2.76-2-4.27c0-1.78-.88-3.94,1.93-4.51C95.92,73.39,93,75.73,95.1,77,94.84,79.14,96.75,79.71,98,80.8Z"/><path class="cls-189" d="M153,75.08c-2.7-3.91,2.63-2.94,3-5L160,68a7.11,7.11,0,0,0,4.16,1.09c.32.4.26.72-.2,1-1.22,1-3,1.19-3.79,2.79C158.14,74.85,155.26,74,153,75.08Z"/><path class="cls-190" d="M94,72.1c-1.62,1.35-.74,3.22-1,4.85a3.14,3.14,0,0,1-.69,1.11,10.07,10.07,0,0,0-2.65,3c-.24.81-.23,1.74-1,2.32a2.45,2.45,0,0,1-1.31.15,3.15,3.15,0,0,1-2.14-3.23,7.37,7.37,0,0,1,.77-2.6c.43-1,.85-1.92.23-3-.06-.2-.11-.41-.16-.61-.17-3.56,4.73-.93,4.93-4A2.47,2.47,0,0,1,94,72.1Z"/><path class="cls-190" d="M76.13,80c1.56-.34,2.15-1.7,3-2.82.88-.13,1.74-.23,2.11.87,1.1,1.4,1.87,2.89,1.34,4.74a2.59,2.59,0,0,1-1,1c-1.48.45-2.77,1.51-4.4,1.53-.22-2.86-2.32-.36-3.28-1.14a2.27,2.27,0,0,1-.34-2A3.37,3.37,0,0,1,76.13,80Z"/><path class="cls-191" d="M82.09,83.05c0-1.72-1.37-3.22-.88-5,.86.1,1.65.07,2-.9,1-1.07,1.93-.5,2.89,0A9.74,9.74,0,0,1,87,78l-1.07,2c-1.2.29-1.12,1.48-1.59,2.29C83.73,83,83.06,83.54,82.09,83.05Z"/><path class="cls-192" d="M77.13,72.09c-3.68,1-3.85-1.52-4.07-4C76,67.83,77.23,69.28,77.13,72.09Z"/><path class="cls-190" d="M86.15,78.07l-2.91-.95c-.64-2.52.24-3.58,2.86-3L86,74.05C87.19,75.36,86.94,76.71,86.15,78.07Z"/><path class="cls-193" d="M72,122c0-1,0-2,0-3,1.63-3.38,3.36-6.62,8-6h0L79,117a3.39,3.39,0,0,0-2.87,1.91C75.25,120.5,74.18,121.94,72,122Z"/><path class="cls-194" d="M79.12,109a1.23,1.23,0,0,0-.12.8,3.13,3.13,0,0,1-2.26,1.73,5.32,5.32,0,0,1-4.12-1.5c-1.06-1.79-.73-3.89-1.34-5.79a4.81,4.81,0,0,1,.26-3A3.44,3.44,0,0,1,74,99.67a1.92,1.92,0,0,1,1.71,1.15,5.56,5.56,0,0,1,.36,2.06c-.2,2.51,3,2.66,3.35,4.82A1.5,1.5,0,0,1,79.12,109Z"/><path class="cls-195" d="M79.12,109a3.68,3.68,0,0,0-.2-.93,18,18,0,0,0-1.46-3.92,5.09,5.09,0,0,1,.59-3.48c.87-1.45,1.82-2.81,3.75-2.9a3,3,0,0,1,1.66,2,3,3,0,0,1,0,1.26c-.62,1.15-.37,2.37-.28,3.58-.49,1.51.82,3,0,4.52C81.73,111.09,80.48,108.53,79.12,109Z"/><path class="cls-196" d="M77.14,111c.23-1,1.18-.93,1.86-1.25L80.08,113c-3.72.59-4.93,4.54-8,6-1.76,1.23-3.23,1.34-4.08-1l2.14-1.87C72.44,114.36,74.91,112.86,77.14,111Z"/><path class="cls-197" d="M83.15,109.12a7.8,7.8,0,0,1-1-5.19,3.1,3.1,0,0,1,2.81-.7,2.23,2.23,0,0,1,1.21.86,1.79,1.79,0,0,0,0,.83c-3.53.55-.6,2.8-1.09,4.15Z"/><path class="cls-146" d="M190,87l7.89,2.15c0,1.74,2.23,3.64.45,5-.82.62-3-.58-4.59-1-1.27-.32-2.54-.69-3.81-1-1.14.46-1.93-.15-2.69-.87C185.38,88,187.15,87.13,190,87Z"/><path class="cls-198" d="M188,90.89l2,1.18c0,.62-.05,1.25-.07,1.87l-7.83,0c-1.81-1.33-2.72-2.65,0-4C184.19,89.05,186.07,90,188,90.89Z"/><path class="cls-199" d="M53.24,61.05a6.07,6.07,0,0,0,.85.06l4,4.07c4.36,3.28,9.49,5.56,13,10,.72.93,1.43,1.87,2.15,2.81.72,1.11.33,1.93-.68,2.59-4.7.17-7.42-3.57-11-5.55-1.69-2.37-4.25-3.52-6.72-4.82-1.86-1-4-1.66-4.65-4a56,56,0,0,1-4.59-5.67c-.74-1.17-1-3,.51-3.95s2.36.39,3.07,1.57C50,59.69,51.11,61.11,53.24,61.05Z"/><path class="cls-200" d="M71,75.17c-4.18-3.51-10.12-4.75-13-10-1.47-3.05.11-4.5,2.8-5.44,3.26-1.14,3,1.67,3.65,3.3,1.3,3.46,1.63,7.42,5.67,9.25A1.85,1.85,0,0,1,71,75.17Z"/><path class="cls-201" d="M72,80.22c.94-.46,1.07-1.35,1.21-2.24,2.29-1.27,2.09,1.13,2.94,2A3.74,3.74,0,0,1,74,82.12C72,82.79,71.42,82.12,72,80.22Z"/><path class="cls-202" d="M50.1,66.15c3.31,3.6,9,3.62,11.83,8-1.49,1.11-2.9.28-4.11-.43-3.92-2.33-8.5-2.25-12.67-3.67-4.92-1.81-9.94-1-14.92-.44-1.46.18-2.84.91-4.1-.4,2.56-3.89,6.67-3.11,10.39-3.49,1,0,2,0,3,.06a22,22,0,0,1,6.1,1c-.73-.76-1.44-1.39-2-2.13-.64-1-1.46-2-.41-3.21C45.92,62.38,46.61,66.32,50.1,66.15Z"/><path class="cls-203" d="M72.08,104c1.82,1.75.67,4,1,6,.23.92-.1,1.25-1,1h-5c-1-.33-1.92-1.25-3,.07-2.56,3.15-6.22,3.71-10,4,.69-1.85,6.53-.66,3-5,1.77-1.34,4.63.56,6-2C66.17,106.85,68.53,104.11,72.08,104Z"/><path class="cls-204" d="M72.08,104c-2.67,2-4.87,5.15-9,4l-1-1c-.08-2.33.86-4.65,0-7-.53-1,.14-1.71.78-2.38C65.66,94.58,70,95.06,73.27,93a6.8,6.8,0,0,1,1.34,3.9,3,3,0,0,1-.31,1.31c-.68,1-3,.89-2.24,3Z"/><path class="cls-205" d="M72.06,111l1-1a7,7,0,0,1,4.06,1,7.21,7.21,0,0,1-7,5.08C69.58,114,71.16,112.6,72.06,111Z"/><path class="cls-78" d="M42.13,90l-25,2.12c2.13-1.15,2.14-7,6.85-3,.53.45,2.05-2.93,2.78-4.68s-.48-2.33-2-2.37c-1,0-2-.07-2.6-1,7.2-1.38,14.22-1.47,20.68,2.75C43.69,86,43.74,88.07,42.13,90Z"/><path class="cls-206" d="M42.12,84c-6.35-3.09-13.3-2.1-20-3,1.39-3.79,4.65-1.27,6.93-2,4.59-.84,8.65,1.67,13,2.07a3.79,3.79,0,0,1,3.25-.77c6.67.61,12.94,2.92,19.34,4.62,1.8.49,3.8,1.66,3.23,3.74-.5,1.86-2.79,1.76-4.32,1.24C56.56,87.5,49,86.91,42.12,84Z"/><path class="cls-207" d="M42.12,84a76.61,76.61,0,0,1,19.23,3.92c1.86.61,3.68,1.62,7.3.31-9.25-4.12-17.86-5.76-26.54-7.17-1.28-1-1.57-1.95,0-2.89l.52-.52a3.62,3.62,0,0,1,2.18-.16,112.64,112.64,0,0,1,11.35,2.37c3,1.18,6.37,1.06,9.46,2.07-2-.84-4.13-.83-6.11-1.58a5.65,5.65,0,0,1-2.88-2c-.78-2.79-2.09-4.31-5.08-2.27a7.59,7.59,0,0,1-3.17,1.13c-3.79,0-7.44-.38-10.27-3.31.41-4.78,4-3.7,7-3.85,3.8-1.56,7.12.45,10.54,1.47,2.15.65,3.89,2.38,6.24,2.63L72,80.22c0,1.33.59,2,2,1.9l.27,2c2.43,3.39,2.49,6.42-1.33,8.87-1.27,1.74-2.06,4.38-5.1,3-2.35-1.06-2.28,3.29-4.65,2a3.75,3.75,0,0,1-1.42-1.43c-1.44-2.24-2.9-4.46-5.51-5.55-4.58-2-9.42-.36-14.09-1C42.12,88,42.12,86,42.12,84Z"/><path class="cls-12" d="M38.16,73.9c3.7.31,6.94,2.88,10.85,2.22,2.55,1.2,5.73-.23,8.07,1.88L60,79.14c-.19,3-2.64,1.13-3.92,1.78-4-1.14-8.18-1.1-12-2.81-.58-1-1.27-.87-2-.21l.11.28c-2.95-.76-6.2-.58-8.88-2.87C34.58,73.28,36.61,74.39,38.16,73.9Z"/><path class="cls-208" d="M56.22,91c4.89-1.8,4.45,3.51,6.81,5.09-2.49,1.61-5.08,2.47-8,1l-5,.88c-1.35-2.66,1-2.9,2.18-3.85a25.06,25.06,0,0,1-6.49.06c-1.17-.19-2.82,0-2.65-2.06C47.32,89.79,51.89,91.81,56.22,91Z"/><path class="cls-21" d="M43.12,92.11c3.18,1.9,6.69.46,10,1,1.23.19,3.47-.86,3.33,1.42-.11,1.82-1.85,1.06-3.14.79-2.06-.44-3,.78-3.23,2.68h-3c-1.16-2.36-5-2.47-5-5.83A4.1,4.1,0,0,1,43.12,92.11Z"/><path class="cls-209" d="M55.07,97.08c2.69-.09,5.2-1.57,8-1L63.15,98c-.36.68-.71,1.36-1.06,2-2.29-.51-4.53-1.34-7-.94C55.12,98.41,55.1,97.74,55.07,97.08Z"/><path class="cls-13" d="M138.11,81c4.67-.15,8.79-2.21,13-3.78C157.34,75.14,163.5,73,170,76.08c.76,1.53.17,2.83-.69,4.08-3.88,1.91-8.08.42-12.06,1.16-1.19.22-2.61-.71-3.5.73,1.26,2.14.94,3.8-1.43,4.84-2.12.08-4.29.66-6.21-.75-2.6-.33-5.31.44-7.82-1S135.48,82.49,138.11,81Z"/><path class="cls-73" d="M168.94,80c.34-1.3.69-2.6,1-3.9l9,2a1.9,1.9,0,0,1,0,2.85L177,81C174.24,81.21,171.37,82.33,168.94,80Z"/><path class="cls-152" d="M178.91,81c0-1,0-1.9,0-2.85a12.58,12.58,0,0,1,9,3,1.39,1.39,0,0,1,0,2Z"/><path class="cls-93" d="M187.94,83.09l0-2,2,0,6,4.08C192.6,87.18,190.57,84,187.94,83.09Z"/><path class="cls-203" d="M188,90.89a8.89,8.89,0,0,1-5.94-1c-4.18-1.91-9-1.51-13.08-3.86.77-1.38,1.81-2.58,2.63-3.93a4.22,4.22,0,0,1,4.35-.05,21,21,0,0,0,8.28,2c2.36.2,4.47.72,5.79,2.9C189.43,88.33,185.7,88.07,188,90.89Z"/><path class="cls-210" d="M175.92,82.1a3.33,3.33,0,0,1-3.95,0c-6.07,1.35-12.13.47-18.18-.13-1-.1-1.9-.69-2.85,0-1.44-1.71-.05-1.88,1.13-1.89,5.62-.08,11.25-.09,16.87-.13,2.65.58,5.56-.88,8.05,1C176.63,81.36,176.27,81.73,175.92,82.1Z"/><path class="cls-211" d="M166,86.13c.36,3.26,4,.87,5.09,3-5.21,2.46-10-.32-15-1.15-.39-1.42.4-2.18,1.54-2.76C160.49,84.6,163.39,83.91,166,86.13Z"/><path class="cls-212" d="M157,86.16c-.32.61-.65,1.21-1,1.81l-5.08.16L146.07,88c0-.63,0-1.25,0-1.88L153,86C154.37,85.26,155.76,84.76,157,86.16Z"/><path class="cls-213" d="M157,86.16,153,86c1.53-2.45.51-3.6-2-4,7-1.88,14-1.08,21,.12.13,2.19-.49,3.8-3,4l-3,0Z"/><path class="cls-214" d="M117.13,104.93c0-.33-.11-.65-.18-1-1-.89-2.68-.7-3.36-2.11s.57-2.12.94-3.15a4.44,4.44,0,0,1,1.34-3.13c1.59-1.37,3.1-3.68,5.09-.46.19,1.31.2,2.52-.95,3.51-1.45,1.26-2.91,2.32-.86,4.61C120.06,104.25,118.16,104.7,117.13,104.93Z"/><path class="cls-215" d="M121,95.11c-2.16-2.44-3.1,1.13-4.8,1-.82-1,.15-2.14-.23-3.17l1.21-1.8c1.14-.78,2.3-.1,3.45,0,1.51.51,3.42.09,4.38,1.88C124.24,94.79,121.78,93.42,121,95.11Z"/><path class="cls-216" d="M130,83.15c-3-1.35-6,2.48-9-.09,2.41-.53,4.83-1,7.23-1.61,1.69-.4,3.37-.94,3.76,1.62Z"/><path class="cls-217" d="M125,93c-1.6-1-3.44-.87-5.2-1.11a1.53,1.53,0,0,1,.25-1.93c1.72.12,3.16,1.66,5,1C126.46,91.63,125.09,92.27,125,93Z"/><path class="cls-218" d="M107.07,96.93c-.91.36-1,1.13-1,1.95a2.27,2.27,0,0,1-1.65,1.76c-.72.24-1.4.51-1.29,1.48-.28.73-1,1.72-.77,2.13.9,1.53,1.91-.45,2.93-.14.24.6.35,1.19-.28,1.65-1.11.13-2.39-.18-3,1.19-1,.6-1.67,0-2.34-.64A48.58,48.58,0,0,0,97.12,102c.3-.95.59-1.91.89-2.86-1.27-2.15.42-3.23,1.63-4.48,2.54-1.13,5.08-2.17,7.79-.43A2.2,2.2,0,0,1,107.07,96.93Z"/><path class="cls-219" d="M86.15,104.09,85,103.87a6,6,0,0,1-2-3c0-.26.07-.52.11-.78.42-.93,2.78-.26,1.86-2.28,2.8-1.62.4-3.71.51-5.57a1.85,1.85,0,0,1,.66-1.15c2.12.2,5.11-1,4.89,3,2.39,1.64,1.91,3.3,0,5-2.06-.16-3.26.6-3,2.87Z"/><path class="cls-220" d="M91.09,99c.11-1.66,1.37-3.33,0-5,.63.18,1.58.17,1.82.57,2.27,3.92,3.76,1.65,5.28-.59.35-.75,1-1.32,1.74-.9a1.16,1.16,0,0,1,.16,1.91c-.6,1.4-2.15,2.31-2,4.06C95.71,98.75,93.36,102.19,91.09,99Z"/><path class="cls-221" d="M97.12,102c2.5.18,3,1.87,3,4a1.56,1.56,0,0,1-1.29,1.38l-1.79-2.44-.93-1A1.79,1.79,0,0,1,97.12,102Z"/><path class="cls-222" d="M104.11,100.06l2-1.18c.76,1.2,5.87,1.41.88,3.9a1.69,1.69,0,0,0-1.79-.74C104.55,101.53,103.46,101.27,104.11,100.06Z"/><path class="cls-223" d="M104.11,100.06l1.07,2-2,.08c-.89-.58-2.35-1.08-1.55-2.4C102.27,98.62,103.25,99.93,104.11,100.06Z"/><path class="cls-224" d="M105,105.76c.1-.55.19-1.1.28-1.65l2.74,2.85C106.73,107.36,106,106.35,105,105.76Z"/><path class="cls-225" d="M98.84,107.29l1.29-1.38,1.89,1c.34.68.68,1.36,1,2l-1,.05-3-1A.71.71,0,0,1,98.84,107.29Z"/><path class="cls-226" d="M100.06,95c0-1.62-.77-1.61-1.9-1H98c-.64-.88-1.48-1.71-.9-3l1-.92a1.93,1.93,0,0,1,2-1,2.12,2.12,0,0,0,2-1.07l3.07,2c.93.78,1.92-.92,2.85.07a4.45,4.45,0,0,0,.14,1c0,.6,0,1.19,0,1.78A1.19,1.19,0,0,1,106.9,94Z"/><path class="cls-227" d="M120,89.92c-.08.64-.17,1.29-.25,1.93l-2.63-.73L114,90.05c-.41,0-1,.24-1-.41-.06-.85.49-.86,1.12-.65l1-.9c1.5-1.08,3.07-1.58,4.81-.56C121.27,88.3,120.31,89.12,120,89.92Z"/><path class="cls-228" d="M106.9,94l1.2-1.12a6.92,6.92,0,0,1,.8.53c1.24,1,4,1.52,2.78,3.65-.78,1.39-3.06.73-4.61-.13C107,96,107,95,106.9,94Z"/><path class="cls-229" d="M114.83,99c-.25,1-1.26,1.84-.62,3,.34,1.14-.45,1.53-1.25,1.93h-1.7c-2.05-3.36,1.61-3.44,2.83-4.93C114.34,98.56,114.58,98.56,114.83,99Z"/><path class="cls-230" d="M114.83,99h-.74a9.62,9.62,0,0,1,1.84-6.11c1.92.93.24,2.11.23,3.17Z"/><path class="cls-231" d="M114.14,89c-.66.28-.88.62-.13,1.06-3.05,2-1.65-1-2.08-1.86C112.81,88.06,113.73,87.83,114.14,89Z"/><path class="cls-232" d="M113,104l1.25-1.93A2.81,2.81,0,0,1,117,104C115.62,104.23,114.29,105.38,113,104Z"/><path class="cls-233" d="M108,90.14c-1,0-1.94,1.81-2.85-.07,1.21-.31.35-2.43,1.78-2.25C108,88,108,89.17,108,90.14Z"/><path class="cls-234" d="M106,83A2.08,2.08,0,0,1,107,85c-.7.15-1.41,1.18-2.07,0C105.09,84.21,104.93,83.3,106,83Z"/><path class="cls-235" d="M88.13,83A5.53,5.53,0,0,1,89,83l.59.08A7.35,7.35,0,0,0,91.38,83l.6,0c1.17,1.15,4.51,1.2,2.16,4.18a1.76,1.76,0,0,0-2,2c-2.26,2.17-3.64.23-5.15-1.1-1.06-.45-2-1-2.3-2.25a1.82,1.82,0,0,1,.53-1.2C86,83.78,87.31,83.83,88.13,83Z"/><path class="cls-236" d="M92.22,77.16a1.68,1.68,0,0,0,.83-.21c1.62,1,.73,2.61,1,3.93L92,82.94l0,.11a2.19,2.19,0,0,1-3,0V83c-.31-.64-.63-1.28-1-1.92A13.89,13.89,0,0,0,92.22,77.16Z"/><path class="cls-237" d="M100.13,89.1l-2,1c-.74-.51-2-.93-1.24-2.06a3.14,3.14,0,0,1,2.37-1.25C100.57,86.9,99.84,88.3,100.13,89.1Z"/><path class="cls-238" d="M92.13,89.13c-1-.78-1.47-1.77-.34-2.67.85-.68,1.74-.2,2.35.66Z"/><path class="cls-239" d="M85.05,85.82A2.74,2.74,0,0,1,87,88l-1,1a1.48,1.48,0,0,1-1.22.51,2,2,0,0,1-1.41-1.43,2.64,2.64,0,0,1,.37-2A1.27,1.27,0,0,1,85.05,85.82Z"/><path class="cls-240" d="M97.06,91.05l.9,3C95.76,93.61,95.54,92.6,97.06,91.05Z"/><path class="cls-241" d="M85.05,89.26,86,89l.15,2.06A5.38,5.38,0,0,0,86,92a1.39,1.39,0,0,1-1.83.42,1.88,1.88,0,0,1-.65-1.87A1.82,1.82,0,0,1,85.05,89.26Z"/><path class="cls-242" d="M88.13,83c.19,2.43-1.4,2.27-3,2.06a2.23,2.23,0,0,1-1-3.07c.48-.78-.5-3,1.87-1.93A2.9,2.9,0,0,0,88.13,83Z"/><path class="cls-188" d="M92.22,77.16c.08,2.83-1.91,3.51-4.13,4A8,8,0,0,1,92.22,77.16Z"/><path class="cls-243" d="M86.15,78.07c0-1.34-.07-2.68-.11-4,4.71.24,1.81,2.37,1,4l-.44,0Z"/><path class="cls-244" d="M72.9,93c2.35-2.67,1.59-5.81,1.33-8.87.87-.38,1.42-1.75,2.46-1.24.43.21.34,1.48.49,2.27a3.16,3.16,0,0,1,.8,1.21,10.52,10.52,0,0,1,.13,4.29,5.39,5.39,0,0,1-.44,1.3,14.75,14.75,0,0,0-2,4.08A2.27,2.27,0,0,1,74,97.15C72.29,96.14,73.51,94.32,72.9,93Z"/><path class="cls-245" d="M77.11,86a2.41,2.41,0,0,1,.07-.8C78.25,84.07,79,82.3,81,83.08c.71.71,1.48,1.38,1.31,2.54-.71,1.36-1.95,1.51-3.28,1.45A3.2,3.2,0,0,1,77.11,86Z"/><path class="cls-246" d="M82,85.05l-1-2,1,0,2-1c.34,1,.68,2,1,3.07a3.81,3.81,0,0,0-.07.75,2.26,2.26,0,0,1-.93.33A2.41,2.41,0,0,1,82,85.05Z"/><path class="cls-247" d="M74,97.15,75.11,96c1.27-.46,2.51-.72,3.58.45a4.71,4.71,0,0,1,.41,1.37A5.72,5.72,0,0,1,78,101.38,2.25,2.25,0,0,1,75.1,101l-.89-.74A1.64,1.64,0,0,1,73.94,98,1.71,1.71,0,0,0,74,97.15Z"/><path class="cls-248" d="M73.94,98l.27,2.26-2.15,1c-.9-.46-3,.28-2.61-1.22C69.94,98.19,72.12,98,73.94,98Z"/><path class="cls-249" d="M78.09,104c1.54,1.1.85,2.67.83,4.09-1-.68-1.2-2.13-2.93-2.09-2.95,0-1.49-1.57-.81-2.8C76.45,102.3,77.23,103.27,78.09,104Z"/><path class="cls-250" d="M78.09,104l-2.92-.8c0-.72,0-1.44-.07-2.16l3.09,0h.66Z"/><path class="cls-251" d="M78.85,101l-.33,0-.33,0-.09-4c1.21-1.78,2.71-3.35,3.89-5.16a1.8,1.8,0,0,1,1.35,0c1.68,1.54,2,3.24.58,5.14a2.41,2.41,0,0,1-2,.86Z"/><path class="cls-252" d="M83,100.85c2,.14,2.14,1.48,2,3l-2.88.06C82.74,103,79.66,101,83,100.85Z"/><path class="cls-253" d="M82,97.87,83.11,97c1.22-.72,2-.58,2.08,1,1,2.4-.73,2-2,2A2.52,2.52,0,0,1,82,97.87Z"/><path class="cls-254" d="M56.07,80.92c.93-1.43,3-.25,3.92-1.78l7.57,2c.88.23,1.49.76,1.26,1.76s-1.08,1.17-1.92,1C63.29,82.88,59.68,81.89,56.07,80.92Z"/><path class="cls-255" d="M57.08,78c-2.69-.62-6.14,2-8.07-1.88.88-.45,1.79-.85,2.65-1.36C56.33,72,56.9,72.36,57.08,78Z"/><path class="cls-256" d="M42.05,77.9c0-.54-.93-1.44.13-1.52.74-.06,2.28.05,1.89,1.73Z"/><path class="cls-257" d="M85.19,98.06a2.13,2.13,0,0,0-2.08-1,3.65,3.65,0,0,0,.16-4.89c.2-.4.46-.47.79-.15L86,92C85.29,93.93,92.79,97,85.19,98.06Z"/><path class="cls-258" d="M89,83.09l3,0C91.05,84.73,90.08,86.18,89,83.09Z"/><path class="cls-259" d="M82,85.05a2.09,2.09,0,0,1,2.07,1.1c-.06.63-.13,1.26-.2,1.89a28.43,28.43,0,0,1-4.2,1.42,1.65,1.65,0,0,1-1.11-.69A2.16,2.16,0,0,1,79,86.21C80,85.83,81.49,86.59,82,85.05Z"/><path class="cls-190" d="M80.09,88.89c.92-1.85,2.23-2,3.82-.85l1.14,1.22-1,.84a2.6,2.6,0,0,1-2.76.53A2,2,0,0,1,80.09,88.89Z"/><path class="cls-260" d="M81.18,90l2.88.14V92a3.56,3.56,0,0,0-.79.15l-1.21-.1A1.68,1.68,0,0,1,80.75,91,1.09,1.09,0,0,1,81.18,90Z"/><path class="cls-261" d="M78,96a2.22,2.22,0,0,1-2.86.06c.18-1.51-.79-3.56,1.83-4,1.1.6,1.32,1.69,1.55,2.77A1.26,1.26,0,0,1,78,96Z"/><path class="cls-262" d="M78,95.1c-1.22-.7-.77-2-1-3l.15-1a2.06,2.06,0,0,1,1.27-.61A2.8,2.8,0,0,1,79.7,91C81.39,93.32,80.7,94.64,78,95.1Z"/><path class="cls-244" d="M78.11,91l-1,0c0-1.71,0-3.41,0-5.12l1.93.25c0,.89,0,1.79,0,2.68A2.45,2.45,0,0,1,78.11,91Z"/><path class="cls-263" d="M78,95.1C79.05,94,80.61,93,79.13,91.17A1.25,1.25,0,0,1,81,90.91l1.09,1.14c.23,2.89-1.9,3.89-4,4.94,0-.34-.09-.68-.13-1A2.31,2.31,0,0,0,78,95.1Z"/><path class="cls-264" d="M81,90.91l-1.84.26-1-.13c-.06-.87-.18-1.78.94-2.15h1L81.18,90C81.1,90.27,81,90.59,81,90.91Z"/></g></g></svg>